<svg xmlns="http://www.w3.org/2000/svg" width="85.39" height="85.39" fill="none" stroke-linecap="round" stroke-linejoin="round" viewBox="2.95 -26.05 24.1 24.1"><g stroke-width=".25" transform="scale(1-1)"><circle cx="15" cy="14" r="10.05" stroke="#000"/><g stroke="#0f0"><path d="m2.95 14h1.55m1.487 0h.025m1.487 0h3m1.488 0h.025m1.488 0h3m1.488 0h.025m1.488 0h3m1.488 0h.025m1.488 0h1.55"/><path d="m15 1.95v1.55m0 1.487v.025m0 1.487v3m0 1.488v.025m0 1.488v3m0 1.487v.025m0 1.488v3m0 1.488v.025m0 1.488v1.55"/></g></g></svg>