<svg xmlns="http://www.w3.org/2000/svg" xmlns:svg="http://www.w3.org/2000/svg" id="svg2" version="1.1" viewBox="0 0 512 512"><metadata id="metadata38"/><defs id="defs36"><path id="0" d="m72-344c0 0 96 0 96 0"/></defs><g id="g4" fill="none" stroke="#000" transform="translate(0 464)"><g id="g6" stroke-width="13.714"><path id="path8" d="m360-192c0 30.928-25.07 56-56 56-30.928 0-56-25.07-56-56 0-30.928 25.07-56 56-56 30.928 0 56 25.07 56 56z"/><path id="path10" d="m440-328h-256l-112 112v144h368v-256z"/></g><g id="g12" stroke-width="8"><path id="path14" d="m72-88l240-240"/><path id="path16" d="m296-248l80-80"/><path id="path18" d="m120-72l128-128"/><path id="path20" d="m344-232l96-96"/><path id="path22" d="m184-72l80-80"/><path id="path24" d="m360-184l80-80"/><path id="path26" d="m248-72l64-64"/><path id="path28" d="m312-72l128-128"/><path id="path30" d="m376-72l64-64"/><path id="path32" d="m72-152l176-176"/></g></g><path id="path9" fill-rule="evenodd" stroke="#000" stroke-width="16" d="m 424,488 64,0 0,-64 z"/></svg>