<svg xmlns="http://www.w3.org/2000/svg" xmlns:xlink="http://www.w3.org/1999/xlink" viewBox="0 0 512 512"><defs><path id="0" stroke="#000" stroke-width="19.758" d="m376 312h-304v-224h304v224z"/></defs><g stroke="#000" stroke-width="19.758"><g transform="matrix(.4049 0 0 .4049 41.717 28.685)"><g fill="#fff6d5" stroke="#000" stroke-width="19.758"><use xlink:href="#0"/><path stroke="#000" stroke-width="18.523" d="m488 400a120 120 0 1 1 -240 0 120 120 0 1 1 240 0z" transform="matrix(1.06667 0 0 1.06667-64.53-130.67)"/></g><use fill="none" stroke-linecap="square" xlink:href="#0"/></g><g transform="matrix(.4049 0 0 .4049 256.5 139.33)"><g fill="#fff6d5" stroke="#000" stroke-width="19.758"><use xlink:href="#0"/><path id="1" stroke="#000" stroke-width="18.523" d="m488 400a120 120 0 1 1 -240 0 120 120 0 1 1 240 0z" transform="matrix(1.06667 0 0 1.06667-64.53-130.67)"/></g><use fill="none" stroke-linecap="square" xlink:href="#0"/></g><g transform="matrix(.4049 0 0 .4049 82.937 276.01)"><g fill="#fff6d5" stroke="#000" stroke-width="19.758"><use xlink:href="#0"/><use xlink:href="#1"/></g><use fill="none" stroke-linecap="square" xlink:href="#0"/></g></g></svg>