<svg xmlns="http://www.w3.org/2000/svg" viewBox="0 0 512 512"><g fill="none" stroke-linecap="round"><path stroke="#fff" stroke-width="15.982" d="m448.36 379.75c101.14-387.66-484.57-386.94-391 0"/><path stroke="#0cf" stroke-dasharray="23.973 23.973" stroke-width="7.991" d="m411.69 381.74l-316.58-.998" opacity=".25"/></g><g fill="red"><path d="m414.19 380.75c0-17.634 14.326-31.929 32-31.929 17.674 0 32 14.295 32 31.929 0 17.634-14.326 31.929-32 31.929-17.674 0-32-14.295-32-31.929"/><path d="m25.19 378.75c0-17.634 14.326-31.929 32-31.929 17.674 0 32 14.295 32 31.929 0 17.634-14.326 31.929-32 31.929-17.674 0-32-14.295-32-31.929"/></g><path fill="none" fill-rule="evenodd" stroke="red" stroke-width="8" d="m256 380.33l-2.05-284.43"/></svg>