<svg xmlns="http://www.w3.org/2000/svg" viewBox="0 0 48 48"><path fill="#d73727" d="m8.606 3.17h30.788a5.4365 5.4365 0 0 1 5.4365 5.4365v30.788a5.4365 5.4365 0 0 1 -5.4365 5.4365h-30.788a5.4365 5.4365 0 0 1 -5.4365 -5.4365v-30.788a5.4365 5.4365 0 0 1 5.4365 -5.4365"/><path fill="#e6987a" d="m10.523 6.374h26.954a4.1489 4.1489 0 0 1 4.1489 4.1489v26.954a4.1489 4.1489 0 0 1 -4.1489 4.1489h-26.954a4.1489 4.1489 0 0 1 -4.1489 -4.1489v-26.954a4.1489 4.1489 0 0 1 4.1489 -4.1489"/><path fill="#df8453" d="m9.579 9.579h28.842v28.842h-28.842z"/><path fill="#fff" fill-rule="evenodd" stroke="#fff" stroke-width="5.443" d="m14.393 14.393l19.214 19.214m0-19.214l-19.214 19.214"/></svg>