<svg xmlns="http://www.w3.org/2000/svg" width="512" height="512" fill="none" stroke-linecap="round" stroke-linejoin="round" viewBox="2.95 -26.05 144.498 144.498"><circle cx="15" cy="14" r="10.05" stroke="#000" stroke-width=".809" transform="matrix(5.57961 0 0-5.57961-8.495 124.31)"/><g stroke="red" stroke-width="2.258"><path d="m7.965 46.2h8.648m8.3 0h.139m8.3 0h16.739m8.3 0h.139m8.3 0h16.739m8.3 0h.139m8.3 0h16.739m8.3 0h.139m8.3 0h8.648"/><path d="m75.2 113.43v-8.648m0-8.3v-.139m0-8.3v-16.739m0-8.3v-.139m0-8.3v-16.739m0-8.3v-.139m0-8.3v-16.739m0-8.3v-.139m0-8.3v-8.648"/></g></svg>