<svg xmlns="http://www.w3.org/2000/svg" viewBox="0 0 512 512"><path fill="none" stroke="#fff" stroke-linejoin="round" stroke-width="32" d="m403.08 108.92c81.23 81.23 81.23 212.93 0 294.16-81.23 81.23-212.93 81.23-294.16 0"/><path fill="#fff" d="m192 32h128v32h-128z"/><path fill="#fff" d="m128 64h64v32h-64z"/><path fill="#fff" d="m32 192h32v128h-32z"/><path fill="#fff" d="m64 128h32v64h-32z"/><path fill="#fff" d="m96 96h32v32h-32z"/><path fill="#fff" d="m64 320h32v64h-32z"/><path fill="#fff" d="m320 64h64v32h-64z"/><path fill="#fff" d="m384 96h32l-32 32z"/><path fill="#fff" d="m96 384h32l-32 32z"/><path fill="none" stroke="#0cf" stroke-width="16" d="m32 480l448-448"/></svg>