<svg xmlns="http://www.w3.org/2000/svg" xmlns:svg="http://www.w3.org/2000/svg" id="svg8" version="1.1" viewBox="0 0 512 512"><metadata id="metadata14"/><path id="path841" fill-rule="evenodd" stroke-width="3.095" d="m 256.00391,67.810547 c -62.11364,0 -112.12696,50.011363 -112.12696,112.125003 v 59.20507 H 125.0918 a 1.547425,1.547425 0 0 0 -1.54688,1.54688 v 201.9707 a 1.547425,1.547425 0 0 0 1.54688,1.54688 h 261.82422 a 1.547425,1.547425 0 0 0 1.54687,-1.54688 V 240.6875 a 1.547425,1.547425 0 0 0 -1.54687,-1.54688 h -18.78516 v -59.20507 c 0,-62.11364 -50.01331,-112.125003 -112.12695,-112.125003 z m 0,31.132812 c 44.86294,0 80.99218,36.116861 80.99218,80.992191 v 59.20507 H 175.01172 v -59.20507 c 0,-44.86295 36.11686,-80.992191 80.99219,-80.992191 z"/><path id="path832" fill="#999" fill-opacity="1" fill-rule="evenodd" stroke-width="3.095" d="m 265.62152,239.14062 h -90.6098 v -59.20507 c 0,-44.86295 36.11686,-80.992191 80.99219,-80.992191 33.30356,0 61.79424,19.902871 74.26508,48.516831 l 20.83355,-27.1108 c -2.91024,-4.64783 -6.15214,-9.06493 -9.69303,-13.21863 -20.53575,-24.089802 -51.12816,-39.320213 -85.4056,-39.320213 -62.11364,0 -112.12696,50.011363 -112.12696,112.125003 v 59.20507 H 125.0918 c -0.85419,3e-4 -1.54658,0.69269 -1.54688,1.54688 v 201.9707 z"/></svg>