<svg xmlns="http://www.w3.org/2000/svg" xmlns:svg="http://www.w3.org/2000/svg" id="svg2" version="1.1" viewBox="0 0 512 512"><metadata id="metadata38"/><g id="g6" fill="none" stroke="red" stroke-width="13.714" transform="translate(0,464)"><path id="path8" stroke="red" d="m 360,-192 c 0,30.928 -25.07,56 -56,56 -30.928,0 -56,-25.07 -56,-56 0,-30.928 25.07,-56 56,-56 30.928,0 56,25.07 56,56 z"/><path id="path10" stroke="red" d="m 440,-328 -256,0 -112,112 0,144 368,0 0,-256 z"/></g><g id="g12" fill="none" stroke="#000" stroke-width="8" transform="translate(0,464)"><path id="path14" d="M 72,-88 312,-328"/><path id="path16" d="m 296,-248 80,-80"/><path id="path18" d="M 120,-72 248,-200"/><path id="path20" d="m 344,-232 96,-96"/><path id="path22" d="m 184,-72 80,-80"/><path id="path24" d="m 360,-184 80,-80"/><path id="path26" d="m 248,-72 64,-64"/><path id="path28" d="M 312,-72 440,-200"/><path id="path30" d="m 376,-72 64,-64"/><path id="path32" d="M 72,-152 248,-328"/></g></svg>