<svg xmlns="http://www.w3.org/2000/svg" xmlns:xlink="http://www.w3.org/1999/xlink" width="96" height="64" fill="none" stroke-linecap="round" stroke-linejoin="round" viewBox="9.875 -30.125 27.093 18.062"><defs><linearGradient id="3" x1="354.62" x2="466.34" y1="188.05" y2="80.46" gradientTransform="matrix(.12069 0 0 .11318-30.762-37.12)" gradientUnits="userSpaceOnUse"><stop stop-color="#9d9d9f"/><stop offset="1" stop-color="#e5e5e5"/></linearGradient><linearGradient id="2" x1="367.75" x2="477.61" gradientTransform="matrix(.11729 0 0 .11645-30.762-37.12)" gradientUnits="userSpaceOnUse" xlink:href="#0"/><linearGradient id="0"><stop stop-color="#cfcfcf"/><stop offset="1" stop-color="#efefef"/></linearGradient><linearGradient id="1" x1="393.6" x2="458.72" y1="174.85" y2="95.03" gradientTransform="matrix(.11729 0 0 .11645-30.762-37.12)" gradientUnits="userSpaceOnUse" xlink:href="#0"/></defs><g fill-rule="evenodd"><path fill="url(#3)" stroke="#acb0b0" stroke-width=".371" d="m12.636-29.24h21.571c1.339 0 2.418 1.077 2.418 2.414v11.459c0 1.337-1.078 2.414-2.418 2.414h-21.571c-1.339 0-2.418-1.077-2.418-2.414v-11.459c0-1.337 1.078-2.414 2.418-2.414z"/><path fill="url(#1)" stroke="url(#2)" stroke-width=".91" d="m13.398-27.508h19.866c.487 0 .879.538.879 1.206v10.09c0 .668-.392 1.206-.879 1.206h-19.866c-.487 0-.879-.538-.879-1.206v-10.09c0-.668.392-1.206.879-1.206z"/></g></svg>