<svg xmlns="http://www.w3.org/2000/svg" xmlns:xlink="http://www.w3.org/1999/xlink" viewBox="0 0 512 512"><defs><linearGradient id="9"><stop stop-color="#fff"/><stop offset="1" stop-color="#fff" stop-opacity="0"/></linearGradient><linearGradient id="7" x1="272.62" x2="272.71" y1="130.22" y2="-1.784" gradientUnits="userSpaceOnUse" xlink:href="#9"/><linearGradient id="A" x1="25.405" x2="25.464" y1="3.818" y2="9.323" gradientTransform="matrix(10.72236 0 0 9.42856-8.03 9.381)" gradientUnits="userSpaceOnUse" xlink:href="#D"/><linearGradient id="C" x2="0" y1="366.65" y2="609.5" gradientTransform="matrix(2.77439 0 0 1.96971-1892.18-872.89)" gradientUnits="userSpaceOnUse"><stop stop-opacity="0"/><stop offset=".5"/><stop offset="1" stop-opacity="0"/></linearGradient><linearGradient id="D"><stop stop-color="#97978a"/><stop offset=".5" stop-color="#c2c2b9"/><stop offset="1" stop-color="#7d7d6f"/></linearGradient><linearGradient id="B"><stop/><stop offset="1" stop-opacity="0"/></linearGradient><linearGradient id="8" x1="354.89" x2="363.15" y1="394.2" y2="406.46" gradientUnits="userSpaceOnUse" xlink:href="#9"/><linearGradient id="0" x1="25.405" x2="25.464" y1="3.818" y2="9.323" gradientTransform="matrix(11.22807 0 0 10.66666-20.421.381)" gradientUnits="userSpaceOnUse" xlink:href="#D"/><linearGradient id="1" x1="63.808" x2="359.81" y1="111.86" y2="404.43" gradientUnits="userSpaceOnUse"><stop stop-color="#c68827"/><stop offset="1" stop-color="#89601f"/></linearGradient><linearGradient id="6" x1="276.81" x2="327.32" y1="285.15" y2="448.46" gradientUnits="userSpaceOnUse" xlink:href="#9"/><linearGradient id="2" x1="22.308" x2="35.785" y1="18.992" y2="39.498" gradientTransform="matrix(11.36744 0 0 10.53434-18.02 1.18)" gradientUnits="userSpaceOnUse"><stop stop-color="#f0f0ef"/><stop offset=".599" stop-color="#e8e8e8"/><stop offset=".828" stop-color="#fff"/><stop offset="1" stop-color="#d8d8d3"/></linearGradient><linearGradient id="3" x1="391.33" x2="415.33" y1="418.04" y2="449.04" gradientUnits="userSpaceOnUse" xlink:href="#B"/><linearGradient id="5" x1="382.63" x2="357.76" y1="431.93" y2="403.27" gradientUnits="userSpaceOnUse"><stop stop-color="#7c7c7c"/><stop offset="1" stop-color="#b8b8b8"/></linearGradient><linearGradient id="4" x2="0" y1="3.818" y2="6.481" gradientTransform="matrix(5.74659 0 0 5.45926 113.88-5.834)" gradientUnits="userSpaceOnUse" xlink:href="#D"/><radialGradient id="E" cx="605.71" cy="486.65" r="117.14" gradientTransform="matrix(2.77439 0 0 1.96971-1891.63-872.89)" gradientUnits="userSpaceOnUse" xlink:href="#B"/><radialGradient id="F" cx="605.71" cy="486.65" r="117.14" gradientTransform="matrix(-2.77439 0 0 1.96971 112.76-872.89)" gradientUnits="userSpaceOnUse" xlink:href="#B"/></defs><g color="#000"><path fill="url(#C)" d="m-1559.25-150.7h1339.63v478.36h-1339.63z" opacity=".402" transform="matrix(.24802 0 0 .15848 476.6 459.69)"/><path fill="url(#E)" d="m-219.62-150.68c0 0 0 478.33 0 478.33 142.87.9 345.4-107.17 345.4-239.2 0-132.03-159.44-239.13-345.4-239.13" opacity=".402" transform="matrix(.24802 0 0 .15848 476.6 459.69)"/><path fill="url(#F)" d="m-1559.25-150.68c0 0 0 478.33 0 478.33-142.87.9-345.4-107.17-345.4-239.2 0-132.03 159.44-239.13 345.4-239.13" opacity=".402" transform="matrix(.24802 0 0 .15848 476.6 459.69)"/></g><g fill-rule="evenodd"><g stroke-width="10.667"><path fill="url(#1)" stroke="#714c16" d="m61.09 48.38h386.77a14.8047 14.8046 0 0 1 14.805 14.8047v408.21a14.8047 14.8046 0 0 1 -14.805 14.805h-386.77a14.8047 14.8046 0 0 1 -14.8046 -14.805v-408.21a14.8047 14.8046 0 0 1 14.8046 -14.8047"/><path fill="url(#2)" stroke="#888a85" d="m95.72 70.03h318.06a6.0427 6.0427 0 0 1 6.042 6.0427v371.67a6.0427 6.0427 0 0 1 -6.042 6.042h-318.06a6.0427 6.0427 0 0 1 -6.0428 -6.042v-371.67a6.0427 6.0427 0 0 1 6.0428 -6.0427"/></g><path fill="#5c5c5c" d="m201.16.381h107.01a10.4947 10.4947 0 0 1 10.495 10.4946v21.677a10.4947 10.4947 0 0 1 -10.495 10.4947h-107.01a10.4947 10.4947 0 0 1 -10.495 -10.4947v-21.677a10.4947 10.4947 0 0 1 10.495 -10.4946"/></g><g fill="none" stroke-width="10.667"><path stroke="url(#6)" d="m100.18 80.02h309.48v363.1h-309.48z"/><path stroke="#c68827" d="m61.794 58.31h385.37a5.1072 5.1072 0 0 1 5.107 5.1072v406.78a5.1072 5.1072 0 0 1 -5.107 5.107h-385.37a5.1072 5.1072 0 0 1 -5.1072 -5.107v-406.78a5.1072 5.1072 0 0 1 5.1072 -5.1072"/></g><g fill-rule="evenodd" color="#000"><g stroke-width="10.667"><path stroke="#000" d="m171.25 48.09h172.5a14.8047 14.8046 0 0 1 14.805 14.8046v45.06a14.8047 14.8046 0 0 1 -14.805 14.805h-172.5a14.8047 14.8046 0 0 1 -14.805 -14.805v-45.06a14.8047 14.8046 0 0 1 14.805 -14.8046" opacity=".108"/><path fill="url(#0)" stroke="#5c5c5c" d="m168.42 37.714h172.5a14.8047 14.8046 0 0 1 14.805 14.8046v45.06a14.8047 14.8046 0 0 1 -14.805 14.8046h-172.5a14.8047 14.8046 0 0 1 -14.805 -14.8046v-45.06a14.8047 14.8046 0 0 1 14.805 -14.8046"/></g><path fill="url(#4)" d="m206.42 13.274h96.5a3.4713 3.4713 0 0 1 3.471 3.4714v31.27a3.4713 3.4713 0 0 1 -3.471 3.4714h-96.5a3.4713 3.4713 0 0 1 -3.471 -3.4714v-31.27a3.4713 3.4713 0 0 1 3.471 -3.4714"/><path fill="url(#A)" d="m168.97 42.38h171.39a10.8046 10.8046 0 0 1 10.804 10.8047v44.39a10.8046 10.8046 0 0 1 -10.804 10.8047h-171.39a10.8046 10.8046 0 0 1 -10.804 -10.8047v-44.39a10.8046 10.8046 0 0 1 10.804 -10.8047"/><path fill="url(#3)" d="m414.86 387.05l.471 62-90.67-.471 90.2-61.53" opacity=".489"/><path fill="url(#5)" stroke="#868a84" stroke-width="10.667" d="m319.3 449.31c19.11 1.788 95.89-46.609 101.13-89.47-16.675 25.846-52.853 20.998-96.68 22.694 0 0 4.217 61.44-4.449 66.778z"/></g><g fill="none" stroke-width="10.667"><path stroke="url(#7)" d="m206.33 16.05c-.022.022.018.307 0 .333-.012.03-.327-.032-.333 0v30.667c0 .069.308.274.333.333.026.018-.03.321 0 .333h-37.667c-.189 0-.482-.019-.667 0-.363.055-.998.211-1.333.333-1.474.621-2.855 2.123-3.333 3.667-.112.438 0 1.193 0 1.667v44.33c0 .189-.019.482 0 .667.055.363.211.998.333 1.333.104.246.197.774.333 1 .049.073.281.263.333.333.223.27.73.777 1 1 .14.105.516.242.667.333.155.084.503.264.667.333.335.122.97.278 1.333.333.184.019.477 0 .667 0h172c.189 0 .482.019.667 0 .363-.055.998-.211 1.333-.333.164-.069.512-.249.667-.333.15-.091.526-.228.667-.333.27-.223.777-.73 1-1 .052-.07.284-.261.333-.333.137-.226.23-.754.333-1 .122-.335.278-.97.333-1.333.019-.184 0-.477 0-.667v-44.33c0-.474.112-1.229 0-1.667-.478-1.544-1.86-3.045-3.333-3.667-.336-.122-.97-.278-1.333-.333-.184-.019-.477 0-.667 0h-37.667c.03-.013-.026-.316 0-.333.025-.059.333-.265.333-.333v-30.667c-.007-.032-.321.03-.333 0-.018-.026.022-.311 0-.333-.03-.012-.301.007-.333 0h-96c-.032.007-.304-.012-.333 0z" opacity=".317"/><path stroke="url(#8)" d="m334.77 434.38c14.611-7.294 48.31-27.744 62.17-47.808-19.12 4.02-31.903 6.289-61.09 7.418 0 0 .923 32.12-1.078 40.39z" color="#000" opacity=".369"/></g><g fill-rule="evenodd" color="#000"><path d="m148 160.38h224v21.333h-224z" opacity=".17"/><path d="m148 203.05h213.33v21.333h-213.33z" opacity=".17"/><path d="m148 245.71h192v21.334h-192z" opacity=".17"/><path d="m148 288.38h224v21.333h-224z" opacity=".17"/><path d="m148 331.05h138.67v21.333h-138.67z" opacity=".17"/></g></svg>