<svg xmlns="http://www.w3.org/2000/svg" xmlns:svg="http://www.w3.org/2000/svg" id="svg2" width="512" height="512" version="1.1"><metadata id="metadata26"/><defs id="defs4"><marker id="Arrow2Sstart" orient="auto" overflow="visible" refX="0" refY="0"><path id="path4206" fill="#007f7f" fill-opacity="1" fill-rule="evenodd" stroke="#007f7f" stroke-linejoin="round" stroke-opacity="1" stroke-width=".625" d="M 8.7185878,4.0337352 L -2.2072895,0.016013256 L 8.7185884,-4.0017078 C 6.9730900,-1.6296469 6.9831476,1.6157441 8.7185878,4.0337352 z" transform="scale(0.3) translate(-2.3,0)"/></marker><marker id="Arrow1Send" orient="auto" overflow="visible" refX="0" refY="0"><path id="path4191" fill="#007f7f" fill-opacity="1" fill-rule="evenodd" stroke="#007f7f" stroke-opacity="1" stroke-width="1pt" d="M 0.0,0.0 L 5.0,-5.0 L -12.5,0.0 L 5.0,5.0 L 0.0,0.0 z" transform="scale(0.2) rotate(180) translate(6,0)"/></marker><marker id="marker4512" orient="auto" overflow="visible" refX="0" refY="0"><path id="path4514" fill="#007f7f" fill-opacity="1" fill-rule="evenodd" stroke="#007f7f" stroke-opacity="1" stroke-width="1pt" d="M 0.0,0.0 L 5.0,-5.0 L -12.5,0.0 L 5.0,5.0 L 0.0,0.0 z" transform="scale(0.2) translate(6,0)"/></marker><marker id="Arrow1Sstart" orient="auto" overflow="visible" refX="0" refY="0"><path id="path4188" fill="#007f7f" fill-opacity="1" fill-rule="evenodd" stroke="#007f7f" stroke-opacity="1" stroke-width="1pt" d="M 0.0,0.0 L 5.0,-5.0 L -12.5,0.0 L 5.0,5.0 L 0.0,0.0 z" transform="scale(0.2) translate(6,0)"/></marker><marker id="DiamondLstart" orient="auto" overflow="visible" refX="0" refY="0"><path id="path4264" fill="#007f7f" fill-opacity="1" fill-rule="evenodd" stroke="#007f7f" stroke-opacity="1" stroke-width="1pt" d="M 0,-7.0710768 L -7.0710894,0 L 0,7.0710589 L 7.0710462,0 L 0,-7.0710768 z" transform="scale(0.8) translate(7,0)"/></marker><linearGradient id="linearGradient3458"><stop id="stop3528" offset="0" stop-color="#7a7a7a" stop-opacity="1"/><stop id="stop3530" offset="1" stop-color="#585858" stop-opacity="1"/></linearGradient><linearGradient id="linearGradient3444"><stop id="stop3523" offset="0" stop-color="#bababa" stop-opacity=".584"/><stop id="stop3525" offset="1" stop-color="#d9d9d9" stop-opacity="1"/></linearGradient><linearGradient id="linearGradient2662"><stop id="stop3518" offset="0" stop-color="#fff" stop-opacity="1"/><stop id="stop3520" offset="1" stop-color="#ededed" stop-opacity="1"/></linearGradient><filter id="0" width="1.1" height="1.525" x="-.05" y="-.262"><feGaussianBlur id="feGaussianBlur4406" stdDeviation="1.637"/></filter><linearGradient id="3" x1="315.89" x2="318.2" y1="422.16" y2="420.47" gradientUnits="userSpaceOnUse"><stop id="stop4409" stop-color="#fff3de"/><stop id="stop4411" offset="1" stop-color="#fff3de" stop-opacity="0"/></linearGradient><linearGradient id="2" x1="584.2" x2="-184.55" y1="313.75" y2="161.76" gradientTransform="translate(-207.42949,116.48766)" gradientUnits="userSpaceOnUse"><stop id="stop4414" stop-color="#fbc594"/><stop id="stop4416" offset="1" stop-color="#c9884e"/></linearGradient><linearGradient id="1" x1="-301.99" x2="786.4" y1="95.82" y2="289.69" gradientTransform="translate(-207.42949,116.48766)" gradientUnits="userSpaceOnUse"><stop id="stop4419" stop-color="#ffbd75" stop-opacity=".584"/><stop id="stop4421" offset="1" stop-color="#f9dbba"/></linearGradient><linearGradient id="4" x1="34.909" x2="784.71" y1="-2837.83" y2="-2838.57" gradientTransform="translate(-207.42949,116.48766)" gradientUnits="userSpaceOnUse"><stop id="stop4424" stop-color="#5f411c"/><stop id="stop4426" offset="1" stop-color="#454545"/></linearGradient><marker id="Arrow2Sstart-4" orient="auto" overflow="visible" refX="0" refY="0"><path id="path4206-3" fill="#007f7f" fill-opacity="1" fill-rule="evenodd" stroke="#007f7f" stroke-linejoin="round" stroke-opacity="1" stroke-width=".625" d="M 8.7185878,4.0337352 L -2.2072895,0.016013256 L 8.7185884,-4.0017078 C 6.9730900,-1.6296469 6.9831476,1.6157441 8.7185878,4.0337352 z" transform="scale(0.3) translate(-2.3,0)"/></marker><marker id="Arrow1Send-1" orient="auto" overflow="visible" refX="0" refY="0"><path id="path4191-9" fill="#007f7f" fill-opacity="1" fill-rule="evenodd" stroke="#007f7f" stroke-opacity="1" stroke-width="1pt" d="M 0.0,0.0 L 5.0,-5.0 L -12.5,0.0 L 5.0,5.0 L 0.0,0.0 z" transform="scale(0.2) rotate(180) translate(6,0)"/></marker><marker id="marker4512-9" orient="auto" overflow="visible" refX="0" refY="0"><path id="path4514-4" fill="#007f7f" fill-opacity="1" fill-rule="evenodd" stroke="#007f7f" stroke-opacity="1" stroke-width="1pt" d="M 0.0,0.0 L 5.0,-5.0 L -12.5,0.0 L 5.0,5.0 L 0.0,0.0 z" transform="scale(0.2) translate(6,0)"/></marker><marker id="Arrow1Sstart-5" orient="auto" overflow="visible" refX="0" refY="0"><path id="path4188-9" fill="#007f7f" fill-opacity="1" fill-rule="evenodd" stroke="#007f7f" stroke-opacity="1" stroke-width="1pt" d="M 0.0,0.0 L 5.0,-5.0 L -12.5,0.0 L 5.0,5.0 L 0.0,0.0 z" transform="scale(0.2) translate(6,0)"/></marker><marker id="DiamondLstart-8" orient="auto" overflow="visible" refX="0" refY="0"><path id="path4264-9" fill="#007f7f" fill-opacity="1" fill-rule="evenodd" stroke="#007f7f" stroke-opacity="1" stroke-width="1pt" d="M 0,-7.0710768 L -7.0710894,0 L 0,7.0710589 L 7.0710462,0 L 0,-7.0710768 z" transform="scale(0.8) translate(7,0)"/></marker><filter id="0-7" width="1.1" height="1.525" x="-.05" y="-.262"><feGaussianBlur id="feGaussianBlur4406-8" stdDeviation="1.637"/></filter></defs><text id="text4239" x="35.703" y="176.504" fill="#000" fill-opacity="1" stroke="none" stroke-linecap="butt" stroke-linejoin="miter" stroke-opacity="1" stroke-width="1" font-family="Luminari" font-size="22.5" font-stretch="normal" font-style="normal" font-variant="normal" font-weight="normal" letter-spacing="0" word-spacing="0" xml:space="preserve" style="line-height:125%;-inkscape-font-specification:Luminari"><tspan id="tspan4241" x="35.703" y="176.504" font-family="Arial" font-size="180" font-stretch="normal" font-style="normal" font-variant="normal" font-weight="normal" style="-inkscape-font-specification:Arial">in</tspan></text><text id="text4243" x="39.183" y="445.668" fill="#000" fill-opacity="1" stroke="none" stroke-linecap="butt" stroke-linejoin="miter" stroke-opacity="1" stroke-width="1" font-family="Luminari" font-size="21.559" font-stretch="normal" font-style="normal" font-variant="normal" font-weight="normal" letter-spacing="0" transform="scale(0.95816897,1.0436573)" word-spacing="0" xml:space="preserve" style="line-height:125%;-inkscape-font-specification:Luminari"><tspan style="-inkscape-font-specification:Arial" id="tspan4245" x="39.183" y="445.668" font-family="Arial" font-size="172.47" font-stretch="normal" font-style="normal" font-variant="normal" font-weight="normal">mm</tspan></text><text id="text4255" x="36.16" y="317.469" fill="#000" fill-opacity="1" stroke="none" stroke-linecap="butt" stroke-linejoin="miter" stroke-opacity="1" stroke-width="1" font-family="Luminari" font-size="22.5" font-stretch="normal" font-style="normal" font-variant="normal" font-weight="normal" letter-spacing="0" word-spacing="0" xml:space="preserve" style="line-height:125%;-inkscape-font-specification:Luminari"><tspan id="tspan4257" x="36.16" y="317.469" font-family="Arial" font-size="180" font-stretch="normal" font-style="normal" font-variant="normal" font-weight="normal" style="-inkscape-font-specification:Arial">m</tspan></text><g id="g4620" transform="matrix(0,-1,1,0,145.95007,170.70492)"><path id="path4802" fill="#fff" stroke="#000" stroke-dasharray="none" stroke-linecap="round" stroke-linejoin="round" stroke-miterlimit="4" stroke-width="8" d="m -278.12478,329.71947 376.51968,0 c 5.87074,0 10.62992,-4.75919 10.62992,-10.62993 l 0,-97.03937 c 0,-5.87074 -4.75918,-10.62992 -10.62992,-10.62992 l -376.51968,0 c -5.87074,0 -10.62992,4.75918 -10.62992,10.62992 l 0,97.03937 c 0,5.87074 4.75918,10.62993 10.62992,10.62993"/><path id="path4806" fill="none" stroke="#000" stroke-dasharray="none" stroke-linecap="round" stroke-linejoin="round" stroke-miterlimit="4" stroke-width="8" d="m -224.86494,211.42025 0,74.40945"/><path id="path4808" fill="none" stroke="#000" stroke-dasharray="none" stroke-linecap="round" stroke-linejoin="round" stroke-miterlimit="4" stroke-width="8" d="m 45.13506,211.42025 0,74.40945"/><path id="path4818" fill="none" stroke="#000" stroke-dasharray="none" stroke-linecap="round" stroke-linejoin="round" stroke-miterlimit="4" stroke-width="8" d="m -89.86494,211.42025 0,42.51968"/><path id="path4876" fill="none" stroke="#000" stroke-dasharray="none" stroke-linecap="round" stroke-linejoin="round" stroke-miterlimit="4" stroke-width="4" d="m 11.38506,211.42025 0,21.25984"/><path id="path4878" fill="none" stroke="#000" stroke-dasharray="none" stroke-linecap="round" stroke-linejoin="round" stroke-miterlimit="4" stroke-width="4" d="m -22.364942,211.42025 0,21.25984"/><path id="path4880" fill="none" stroke="#000" stroke-dasharray="none" stroke-linecap="round" stroke-linejoin="round" stroke-miterlimit="4" stroke-width="4" d="m -56.114941,211.42025 0,21.25984"/><path id="path4882" fill="none" stroke="#000" stroke-dasharray="none" stroke-linecap="round" stroke-linejoin="round" stroke-miterlimit="4" stroke-width="4" d="m -157.36494,211.42025 0,21.25984"/><path id="path4884" fill="none" stroke="#000" stroke-dasharray="none" stroke-linecap="round" stroke-linejoin="round" stroke-miterlimit="4" stroke-width="4" d="m -123.61494,211.42025 0,21.25984"/><path id="path4886" fill="none" stroke="#000" stroke-dasharray="none" stroke-linecap="round" stroke-linejoin="round" stroke-miterlimit="4" stroke-width="4" d="m -191.11494,211.42025 0,21.25984"/></g></svg>