<svg xmlns="http://www.w3.org/2000/svg" xmlns:svg="http://www.w3.org/2000/svg" id="svg2" width="356.1" height="214.37" fill="none" stroke-linecap="round" stroke-linejoin="round" version="1.1" viewBox="-0.25 -50.25 100.5 60.5"><metadata id="metadata46"/><g id="g4" transform="scale(1-1)"><g id="g6" stroke="#000"><g id="g8" stroke-width=".5"><circle id="circle10" cx="30" cy="20" r="10"/><circle id="circle12" cx="30" cy="20" r="20"/><path id="path14" d="M44.9071 33.3333A10 10 0 0 1 52.3607 30"/><path id="path16" d="M52.3607 10A10 10 0 0 1 44.9071 6.66667"/><path id="path18" d="M56.8328 26A3 3 0 0 1 53.8514 22.6667"/><path id="path20" d="M53.8514 17.3333A3 3 0 0 1 56.8328 14"/><path id="path22" d="M53.8514 17.3333A24 24 0 0 1 53.8514 22.6667"/></g><path id="path24" stroke-width=".18" d="m87.13 29.908v-.067l-.067-.067v-.067l-.067-.067-.067-.067-.067-.135-.067-.067-.067-.067-.067-.067v-.067l-.067-.067v-.067l-.067-.067v-.067l-.067-.067v-.067l-.067-.135v-.067l-.067-.135v-.067-.135l-.067-.067v-.135-.067-.067l-.067-.135v-.067-.135-.135-.067l-.067-.135v-.067-.135-.135-.067-.067-.067-.135l.067-.067v-.135-.067-.067l.067-.135v-.067-.135-.135l.067-.067v-.135l.067-.067v-.135l.067-.135v-.135l.067-.135v-.135l.067-.067v-.135-.135l.067-.067v-.135-.067-.135-.067-.067l.067-.135v-.067-.135-.067-.067-.135-.067-.067-.067-.067-.067-.067-.067-.067-.067-.067-.067-.067l-.067-.067v-.067-.067-.067l-.067-.067v-.067-.067-.067h-.067v-.067-.067l-.067-.067v-.067-.067l-.067-.067v-.067l-.067-.067-.067-.067v-.067l-.067-.067v-.067h-.067v-.067l-.067-.067v-.067h-.067v-.067h-.067v-.067-.067h-.067v-.067h-.067v-.067-.067h-.067v-.067-.135-.067-.067-.067-.067-.067-.067l-.067-.067v-.067-.067-.067-.067-.067-.067-.067h-.067v-.067-.067-.067-.067-.067-.067-.067-.067l-.067-.067v-.067-.067-.067-.067-.067-.067-.067-.067-.067-.067-.067-.067l-.067-.067v-.135-.067-.067-.067-.067-.135-.067-.067-.067-.067-.067-.067-.067-.067-.067-.067-.067-.067-.067-.067-.067-.067h.067v-.067-.067-.067-.067-.067-.067-.067-.067-.067l.067-.067v-.067-.067-.067-.067-.067-.067-.067l.067-.067v-.067-.067-.067l.067-.067v-.067-.067-.067h.067v-.067-.067-.067-.067h.067v-.067-.067-.067-.067-.067-.067-.067-.067-.067-.067-.067-.067-.135-.067-.067-.067-.067-.067-.067-.067-.067-.067-.135-.067-.135l.067-.067v-.067-.135-.067-.067-.067-.135-.067l.067-.067v-.067-.067-.067h.067v-.067-.067-.067-.067-.067-.067-.067-.067-.067-.067-.067-.067-.067l-.067-.067v-.067l-.067-.067-.067-.067-.067-.067-.067-.067-.067-.067v-.067h-.067v-.067-.067h-.067v-.067-.067"/><g id="g26" stroke-width=".5"><path id="path28" d="m87.09 30h-34.727"/><path id="path30" d="m85.88 14h-29.04"/><path id="path32" d="m85.64 10h-33.28"/><path id="path34" d="m86.23 26h-29.394"/></g></g><g id="g36" stroke="red" stroke-width=".18"><path id="path38" d="m100 20h-.32m-2.151 0h-.018m-2.151 0h-4.32m-2.151 0h-.018m-2.151 0h-4.32m-2.151 0h-.018m-2.151 0h-4.32m-2.151 0h-.018m-2.151 0h-4.32m-2.151 0h-.018m-2.151 0h-4.32m-2.151 0h-.018m-2.151 0h-4.32m-2.151 0h-.018m-2.151 0h-4.32m-2.151 0h-.018m-2.151 0h-4.32m-2.151 0h-.018m-2.151 0h-4.32m-2.151 0h-.018m-2.151 0h-4.32m-2.151 0h-.018m-2.151 0h-4.32m-2.151 0h-.018m-2.151 0h-.32"/><path id="path40" d="m30 50v-1.92m0-2.151v-.018m0-2.151v-4.32m0-2.151v-.018m0-2.151v-4.32m0-2.151v-.018m0-2.151v-4.32m0-2.151v-.018m0-2.151v-4.32m0-2.151v-.018m0-2.151v-4.32m0-2.151v-.018m0-2.151v-4.32m0-2.151v-.018m0-2.151v-1.92"/></g></g></svg>