<svg xmlns="http://www.w3.org/2000/svg" xmlns:svg="http://www.w3.org/2000/svg" id="svg2" width="512" height="512" fill="none" stroke-linecap="round" stroke-linejoin="round" version="1.1" viewBox="18 -42 144.493 144.5"><metadata id="metadata26"/><g id="g4" transform="matrix(3,0,0,-3,-16.249059,100.75137)"><g id="g6" stroke="#000" stroke-width=".847"><circle id="circle8" cx="30" cy="30" r="10.296" stroke-dasharray="none" stroke-miterlimit="4" stroke-width="1.505"/><path id="path10" stroke-dasharray="none" stroke-miterlimit="4" stroke-width="1.505" d="M 33,5 53,40"/></g><g id="g12" stroke="red" stroke-dasharray="none" stroke-miterlimit="4" stroke-width=".753"><g id="g16" stroke-dasharray="none" stroke-miterlimit="4" stroke-width=".753"><path id="path18" stroke-dasharray="none" stroke-miterlimit="4" stroke-width=".753" d="m 30,42 0,-3.5 m 0,-1.5 0,-1.5 m 0,-1.5 0,-8 m 0,-1.5 0,-1.5 m 0,-1.5 0,-3.5"/><path id="path20" stroke-dasharray="none" stroke-miterlimit="4" stroke-width=".753" d="m 42,30 -3.5,0 m -1.5,0 -1.5,0 m -1.5,0 -8,0 m -1.5,0 -1.5,0 m -1.5,0 -3.5,0"/></g><circle id="path4157" cx="36.596" cy="-26.064" r=".898" fill="none" fill-opacity=".125" fill-rule="evenodd" stroke="red" stroke-dasharray="none" stroke-dashoffset="0" stroke-linecap="round" stroke-linejoin="miter" stroke-miterlimit="4" stroke-opacity="1" stroke-width=".753" opacity="1" transform="scale(1,-1)"/></g></g></svg>