<svg xmlns="http://www.w3.org/2000/svg" xmlns:xlink="http://www.w3.org/1999/xlink" id="Layer_1" width="100" height="100" x="0" y="0" enable-background="new 0 0 100 100" version="1.1" viewBox="0 0 100 100" xml:space="preserve"><path d="M100,15.915V0L0,100h15.916v-8.009h4.004V100h10.01v-8.009h4.004V100h10.01v-8.009h4.004V100h10.01v-8.009h4.004V100h10.011	v-8.009h4.004V100h10.01v-8.009h4.004V100H100V89.989h-8.009v-4.004H100v-10.01h-8.009v-4.004H100V61.961h-8.009v-4.004H100v-10.01	h-8.009v-4.004H100v-10.01h-8.009v-4.004H100v-10.01h-8.009v-4.004H100z M85.986,85.985H33.833l52.153-52.152V85.985z"/></svg>