<svg xmlns="http://www.w3.org/2000/svg" xmlns:svg="http://www.w3.org/2000/svg" id="svg52" version="1.1" viewBox="0 0 512 512"><metadata id="metadata56"/><defs id="defs24"><linearGradient id="1" x1="19.893" x2="19.689" y1="31.17" y2="30.828" gradientUnits="userSpaceOnUse"><stop id="stop2"/><stop id="stop4" offset="1" stop-color="#c9c9c9"/></linearGradient><linearGradient id="2" x1="43.24" x2="45.32" y1="17.376" y2="22.251" gradientUnits="userSpaceOnUse"><stop id="stop7" stop-color="#ffd1d1"/><stop id="stop9" offset=".5" stop-color="#ff1d1d"/><stop id="stop11" offset="1" stop-color="#6f0000"/></linearGradient><linearGradient id="0" x1="10.575" x2="12.263" y1="38.812" y2="41.625" gradientUnits="userSpaceOnUse"><stop id="stop14" stop-color="#c1c1c1"/><stop id="stop16" offset="1" stop-color="#acacac"/></linearGradient><radialGradient id="3" cx="29.05" cy="27.641" r="3.241" gradientTransform="matrix(2.92356 0 0 2.02972-61.56-27.884)" gradientUnits="userSpaceOnUse"><stop id="stop19" stop-color="#e7e2b8"/><stop id="stop21" offset="1" stop-color="#e7e2b8" stop-opacity="0"/></radialGradient></defs><g id="g34" transform="matrix(.82188 0 0 .82188 105.53 119.67)"><g id="g30" fill="#fff66e" fill-opacity="1"><path id="path26" fill="#fff66e" fill-opacity="1" d="m376 312h-304v-224h304v224"/><path id="path28" fill="#fff66e" fill-opacity="1" stroke="#fff" stroke-width="16" d="m456 296c0 70.69-57.31 128-128 128-70.69 0-128-57.31-128-128 0-70.69 57.31-128 128-128 70.69 0 128 57.31 128 128z"/></g><path id="path32" fill="none" stroke="#fff" stroke-linecap="square" stroke-width="16" d="m376 312h-304v-224h304v224z"/></g><g id="g50" fill-rule="evenodd" transform="matrix(14.7166-5.23593 5.45683 14.1209-407.14 9.06)"><path id="path36" fill="#cb9022" stroke="#5c410c" stroke-width=".934" d="m17.341 32.5l5.625-5.625 20.09-9.75c3.25-1.25 5.188 3.375 2.313 5l-20.03 9.375-8 1z"/><path id="path38" fill="url(#2)" d="m38.33 20c0 0 1.438.094 2 1.344.58 1.288 0 2.656 0 2.656l5.03-2.469c0 0 1.452-.881.656-2.844-.785-1.936-2.688-1.156-2.688-1.156l-5 2.469"/><path id="path40" fill="url(#3)" d="m18.768 31.781l4.5-4.5c1.5.813 2.281 2.156 1.875 3.719l-6.375.781"/><path id="path42" fill="url(#1)" d="m20.11 30.375l-1.625 1.594 2.344-.313c.219-.719-.188-1.063-.719-1.281"/><g id="g48" fill-opacity=".364"><path id="path44" fill="#fff" d="m23.268 27.25l1.563 1.25 15.387-7.319c-.444-.856-1.242-1.085-1.903-1.162l-15.05 7.231"/><path id="path46" d="m25.14 31.06l.188-.75 15.231-7.13c0 0-.11.614-.216.749l-15.203 7.13"/></g></g></svg>