<svg xmlns="http://www.w3.org/2000/svg" xmlns:svg="http://www.w3.org/2000/svg" id="svg2" width="512" height="512" fill="none" stroke-linecap="round" stroke-linejoin="round" version="1.1" viewBox="12 -52 144.493 144.5"><metadata id="metadata36"/><g id="g4" transform="matrix(3,0,0,-3,-13.253303,116.25005)"><g id="g6" stroke="#000" stroke-dasharray="none" stroke-miterlimit="4" stroke-width=".753"><circle id="circle8" cx="20" cy="30" r="7.07" stroke="#fff" stroke-dasharray="none" stroke-miterlimit="4" stroke-width="1.505"/><circle id="circle10" cx="43" cy="22" r="8.602" stroke="#fff" stroke-dasharray="none" stroke-miterlimit="4" stroke-width="1.505"/><circle id="circle12" cx="36" cy="44" r="7.07" stroke="#fff" stroke-dasharray="none" stroke-miterlimit="4" stroke-width="1.505"/></g><g id="g14" stroke="red" stroke-dasharray="none" stroke-miterlimit="4" stroke-width=".753"><g id="g16" stroke-dasharray="none" stroke-miterlimit="4" stroke-width=".753"><path id="path18" stroke-dasharray="none" stroke-miterlimit="4" stroke-width=".753" d="m 44,44 -2.75,0 m -1.5,0 -3,0 m -1.5,0 -3,0 m -1.5,0 -2.75,0"/><path id="path20" stroke-dasharray="none" stroke-miterlimit="4" stroke-width=".753" d="m 36,52 0,-2.75 m 0,-1.5 0,-3 m 0,-1.5 0,-3 m 0,-1.5 0,-2.75"/><path id="path22" stroke-dasharray="none" stroke-miterlimit="4" stroke-width=".753" d="m 12,30 2.75,0 m 1.5,0 3,0 m 1.5,0 3,0 m 1.5,0 2.75,0"/><path id="path24" stroke-dasharray="none" stroke-miterlimit="4" stroke-width=".753" d="m 20,38 0,-2.75 m 0,-1.5 0,-3 m 0,-1.5 0,-3 m 0,-1.5 0,-2.75"/><path id="path26" stroke-dasharray="none" stroke-miterlimit="4" stroke-width=".753" d="m 43,32 0,-2.5 m 0,-1.5 0,-3 m 0,-1.5 0,-3 m 0,-1.5 0,-3 m 0,-1.5 0,-2.5"/><path id="path28" stroke-dasharray="none" stroke-miterlimit="4" stroke-width=".753" d="m 33,22 2.5,0 m 1.5,0 3,0 m 1.5,0 3,0 m 1.5,0 3,0 m 1.5,0 2.5,0"/></g><circle id="path4164" cx="33.156" cy="-31.835" r="1.017" fill="none" fill-opacity=".125" fill-rule="evenodd" stroke="red" stroke-dasharray="none" stroke-dashoffset="0" stroke-linecap="round" stroke-linejoin="miter" stroke-miterlimit="4" stroke-opacity="1" stroke-width=".753" opacity="1" transform="scale(1,-1)"/></g></g></svg>