<svg xmlns="http://www.w3.org/2000/svg" width="271.447" height="61" fill="none" stroke-linecap="round" stroke-linejoin="round" version="1.1" viewBox="59.553 -90.5 271.447 61"><g transform="scale(1,-1)"><path stroke="red" stroke-width="2" d="M90,90 L60,30"/><path stroke="red" stroke-width="2" d="M150,90 A30,30 0 1,1 180,60"/><circle cx="240" cy="60" r="30" stroke="red" stroke-width="2"/><path stroke="red" stroke-width="2" d="M89.55278640450004,90.22360679774998 L59.55278640450004,30.22360679774998"/><path stroke="red" stroke-width="2" d="M90.44721359549996,89.77639320225002 L60.44721359549996,29.77639320225002"/><path stroke="red" stroke-width="2" d="M150,89.5 A29.5,29.5 0 1,1 179.5,60"/><path stroke="red" stroke-width="2" d="M150,90.5 A30.5,30.5 0 1,1 180.5,60"/><circle cx="240" cy="60" r="30.5" stroke="red" stroke-width="2"/><circle cx="240" cy="60" r="29.5" stroke="red" stroke-width="2"/><circle cx="240" cy="60" r="30" stroke="#000" stroke-width="1"/><path stroke="#000" stroke-width="1" d="M150,90 A30,30 0 1,1 180,60"/><path stroke="#000" stroke-width="1" d="M60,30 L90,90"/><circle cx="330" cy="60" r="1" stroke="red" stroke-width="2"/></g></svg>