<svg xmlns="http://www.w3.org/2000/svg" viewBox="0 0 512 512"><g stroke="#000" stroke-linecap="square"><g stroke-opacity=".251"><path fill="none" stroke-dasharray="13.403 26.805" stroke-width="13.403" d="m101.42 205.98v95.7"/><path fill="#e1e1e1" stroke-dasharray="15.448 30.896" stroke-width="15.448" d="m102.1 191.46h208"/></g><g fill="none"><g stroke-width="24"><path d="m310.1 317.42h112"/><path d="m313.36 194.85h112"/></g><g stroke-width="16"><path stroke-dasharray="16 32" stroke-opacity=".251" d="m103.19 316.34h208"/><path d="m304.68 425.08v-352"/></g></g></g><g fill="red"><path d="m269.69 193.76c0-17.674 14.326-32 32-32 17.674 0 32 14.326 32 32 0 17.674-14.326 32-32 32-17.674 0-32-14.326-32-32"/><path d="m270.51 316.34c0-17.674 14.326-32 32-32 17.674 0 32 14.326 32 32 0 17.674-14.326 32-32 32-17.674 0-32-14.326-32-32"/></g><g fill="none" stroke="#000" stroke-linecap="square"><path stroke-width="15.479" d="m100.88 177.39v-104.2"/><path stroke-width="14.816" d="m103.59 423.1v-93.4"/></g></svg>