<svg xmlns="http://www.w3.org/2000/svg" xmlns:svg="http://www.w3.org/2000/svg" id="svg32" width="512" height="512" fill="none" stroke-linecap="round" stroke-linejoin="round" version="1.1" viewBox="-2 -62 144.497 144.497"><metadata id="metadata38"/><g id="g30" stroke-width="1.129" transform="matrix(2.2,0,0,-2.2,15.248355,87.248355)"><g id="g8" stroke="#000"><circle id="circle2" cx="10" cy="50" r="10" stroke="#fff" stroke-dasharray="none" stroke-miterlimit="4" stroke-width="2.053"/><circle id="circle4" cx="20" cy="20" r="10" stroke="#fff" stroke-dasharray="none" stroke-miterlimit="4" stroke-width="2.053"/><circle id="circle6" cx="40" cy="45" r="10" stroke="#fff" stroke-dasharray="none" stroke-miterlimit="4" stroke-width="2.053"/></g><g id="g28" stroke="red" stroke-dasharray="none" stroke-miterlimit="4" stroke-width="1.026"><path id="path10" stroke-dasharray="none" stroke-miterlimit="4" stroke-width="1.026" d="M 15,35 30,32.5"/><path id="path12" stroke-dasharray="none" stroke-miterlimit="4" stroke-width="1.026" d="m 25,47.5 5,-15"/><path id="path14" stroke-dasharray="none" stroke-miterlimit="4" stroke-width="1.026" d="M 25,47.5 15,35"/><path id="path16" stroke-dasharray="none" stroke-miterlimit="4" stroke-width="1.026" d="M 10,62 V 58.5 M 10,57 V 55.5 M 10,54 v -8 m 0,-1.5 V 43 m 0,-1.5 V 38"/><path id="path18" stroke-dasharray="none" stroke-miterlimit="4" stroke-width="1.026" d="M 22,50 H 18.5 M 17,50 H 15.5 M 14,50 H 6 M 4.5,50 H 3 M 1.5,50 H -2"/><path id="path20" stroke-dasharray="none" stroke-miterlimit="4" stroke-width="1.026" d="M 40,57 V 53.5 M 40,52 V 50.5 M 40,49 v -8 m 0,-1.5 V 38 m 0,-1.5 V 33"/><path id="path22" stroke-dasharray="none" stroke-miterlimit="4" stroke-width="1.026" d="M 52,45 H 48.5 M 47,45 H 45.5 M 44,45 h -8 m -1.5,0 H 33 m -1.5,0 H 28"/><path id="path24" stroke-dasharray="none" stroke-miterlimit="4" stroke-width="1.026" d="M 20,32 V 28.5 M 20,27 V 25.5 M 20,24 v -8 m 0,-1.5 V 13 m 0,-1.5 V 8"/><path id="path26" stroke-dasharray="none" stroke-miterlimit="4" stroke-width="1.026" d="M 32,20 H 28.5 M 27,20 H 25.5 M 24,20 h -8 m -1.5,0 H 13 m -1.5,0 H 8"/></g></g></svg>