<svg xmlns="http://www.w3.org/2000/svg" xmlns:svg="http://www.w3.org/2000/svg" id="svg10" width="512" height="512" fill="none" stroke-linecap="round" version="1.1" viewBox="-2.125 -7.125 144.498 144.498"><metadata id="metadata16"/><g id="g8" fill="#e6e6e6" stroke="#000" stroke-width="4.233" transform="translate(36.12439)"><path id="path2" d="m 35.857,117.13 h -3.715 c -3.89,0 -7.43,-3.54 -7.43,-7.43 V 87.41 c 0,-3.89 3.54,-7.43 7.43,-7.43 h 3.715 c 3.89,0 7.43,3.54 7.43,7.43 v 22.29 c 0,3.89 -3.54,7.43 -7.43,7.43 z m -3.715,7.43 h 3.715 c 7.78,0 14.86,-7.079 14.86,-14.86 V 87.41 c 0,-7.781 -7.079,-14.86 -14.86,-14.86 h -3.715 c -7.781,0 -14.86,7.079 -14.86,14.86 v 22.29 c 0,7.781 7.079,14.86 14.86,14.86 z"/><path id="path4" d="m 35.857,50.26 h -3.715 c -3.89,0 -7.43,-3.54 -7.43,-7.43 V 20.54 c 0,-3.89 3.54,-7.43 7.43,-7.43 h 3.715 c 3.89,0 7.43,3.54 7.43,7.43 v 22.29 c 0,3.89 -3.54,7.43 -7.43,7.43 z m -3.715,7.43 h 3.715 c 7.78,0 14.86,-7.079 14.86,-14.86 V 20.54 c 0,-7.781 -7.079,-14.86 -14.86,-14.86 h -3.715 c -7.781,0 -14.86,7.079 -14.86,14.86 v 22.29 c 0,7.781 7.079,14.86 14.86,14.86 z"/><path id="path6" d="m 37.714,42.834 c 0,-1.945 -1.77,-3.715 -3.715,-3.715 -1.945,0 -3.715,1.77 -3.715,3.715 v 44.579 c 0,1.945 1.77,3.715 3.715,3.715 1.945,0 3.715,-1.77 3.715,-3.715 z"/></g></svg>