<svg xmlns="http://www.w3.org/2000/svg" xmlns:svg="http://www.w3.org/2000/svg" id="svg12" width="512" height="512" fill="none" stroke-linecap="round" version="1.1" viewBox="-2.125 -7.125 144.498 144.498"><metadata id="metadata18"/><g id="g10" fill="#e6e6e6" stroke="#000" stroke-width="4.233" transform="translate(36.12439)"><path id="path2" d="m 35.857,123.09 h -3.715 c -3.89,0 -7.43,-3.54 -7.43,-7.43 V 93.37 c 0,-3.89 3.54,-7.43 7.43,-7.43 h 3.715 c 3.89,0 7.43,3.54 7.43,7.43 v 22.29 c 0,3.89 -3.54,7.43 -7.43,7.43 z m -3.715,7.43 h 3.715 c 7.78,0 14.86,-7.079 14.86,-14.86 V 93.37 c 0,-7.781 -7.079,-14.86 -14.86,-14.86 h -3.715 c -7.781,0 -14.86,7.079 -14.86,14.86 v 22.29 c 0,7.781 7.079,14.86 14.86,14.86 z"/><path id="path4" d="m 35.857,44.31 h -3.715 c -3.89,0 -7.43,-3.54 -7.43,-7.43 V 14.59 c 0,-3.89 3.54,-7.43 7.43,-7.43 h 3.715 c 3.89,0 7.43,3.54 7.43,7.43 v 22.29 c 0,3.89 -3.54,7.43 -7.43,7.43 z m -3.715,7.43 h 3.715 c 7.78,0 14.86,-7.079 14.86,-14.86 V 14.59 c 0,-7.781 -7.079,-14.86 -14.86,-14.86 h -3.715 c -7.781,0 -14.86,7.079 -14.86,14.86 v 22.29 c 0,7.781 7.079,14.86 14.86,14.86 z"/><path id="path6" d="m 30.29,55.49 h 7.421 V 36.876 c 0,-1.945 -1.765,-3.71 -3.71,-3.71 -1.945,0 -3.71,1.765 -3.71,3.71 V 55.49 Z"/><path id="path8" d="m 30.29,74.66 h 7.421 v 18.614 c 0,1.945 -1.765,3.71 -3.71,3.71 -1.945,0 -3.71,-1.765 -3.71,-3.71 V 74.66 Z"/></g></svg>