<svg xmlns="http://www.w3.org/2000/svg" xmlns:xlink="http://www.w3.org/1999/xlink" viewBox="0 0 512 512"><defs><path id="D" d="m62.5 4.5a10 10 0 1 1 -20 0 10 10 0 1 1 20 0z"/><filter id="0" width="1.177" height="1.767" x="-.089" y="-.384"><feGaussianBlur stdDeviation="1.598"/></filter><linearGradient id="4" x1="55.878" x2="52.5" y1="12.472" y2="-4.621" gradientUnits="userSpaceOnUse"><stop stop-color="#888a85"/><stop offset="1" stop-color="#babdb6"/></linearGradient><linearGradient id="5" x1="3.5" x2="46.779" y1="35.743" y2="45.743" gradientUnits="userSpaceOnUse"><stop stop-opacity="0"/><stop offset=".081" stop-opacity="0"/><stop offset=".615" stop-opacity=".247"/><stop offset=".749" stop-opacity=".498"/><stop offset="1"/></linearGradient><linearGradient id="7" x1="81.1" x2="83.63" y1="57.15" y2="54.615" gradientUnits="userSpaceOnUse"><stop stop-color="#2e3436"/><stop offset="1" stop-color="#555753"/></linearGradient><linearGradient id="6" x1="338.81" x2="367.62" y1="343.78" y2="372.58" gradientUnits="userSpaceOnUse"><stop/><stop offset="1" stop-opacity="0"/></linearGradient><linearGradient id="1" x1="81.33" x2="82.92" y1="55.11" y2="53.51" gradientUnits="userSpaceOnUse"><stop stop-color="#555753"/><stop offset=".702" stop-color="#a3a5a2"/><stop offset="1" stop-color="#888a85"/></linearGradient><linearGradient id="3" x1="394.76" x2="419.86" y1="423.73" y2="400.83" gradientUnits="userSpaceOnUse"><stop stop-color="#888a85"/><stop offset="1" stop-color="#d3d7cf"/></linearGradient><linearGradient id="2" x1="54.11" x2="50.08" y1="12.847" y2="-3.881" gradientUnits="userSpaceOnUse"><stop stop-color="#babdb6"/><stop offset="1" stop-color="#888a85"/></linearGradient><radialGradient id="B" cx="16.83" cy="24.744" r="16.925" gradientTransform="matrix(19.92396-5.33861 4.73481 17.6713-230.29-89.69)" gradientUnits="userSpaceOnUse" xlink:href="#8"/><radialGradient id="C" cx="17.06" cy="28.851" r="13.5" gradientTransform="matrix(1.45955 0 0 1.34534-7.403-10.822)" gradientUnits="userSpaceOnUse"><stop stop-color="#429eff"/><stop offset="1" stop-color="#0044a7"/></radialGradient><radialGradient id="A" cx="45.09" cy="-2.694" r="10.498" gradientTransform="matrix(0 1.14344-1.24722 0 41.735-54.26)" gradientUnits="userSpaceOnUse"><stop stop-color="#fff"/><stop offset="1" stop-color="#eeeeec"/></radialGradient><radialGradient id="8" cx="8.08" cy="9.521" r="9.29" gradientUnits="userSpaceOnUse"><stop stop-color="#fff"/><stop offset="1" stop-color="#fff" stop-opacity="0"/></radialGradient><radialGradient id="9" cx="59.787" cy="10.902" r="10.556" gradientTransform="matrix(0-1.68661 1.66336 0 41.654 111.74)" gradientUnits="userSpaceOnUse"><stop stop-color="#fbfbfa"/><stop offset="1" stop-color="#d3d7cf"/></radialGradient></defs><path fill="url(#5)" d="m21 35.743c-9.66 0-17.5 1.813-17.5 4.047 0 2.234 7.84 4.047 17.5 4.047 4.496 0 8.587-.395 11.688-1.041l.813.947c.025.021.087.043.156.058l7.969 1.857c.357.083.883.101 1.531.072.649-.029 1.412-.124 2.219-.311.8-.185 1.206-.35 1.344-.499.138-.149.039-.28-.313-.361l-8.03-1.843c-.079-.018-.172-.032-.281-.036l-4.094-.188c2.79-.717 4.5-1.663 4.5-2.703 0-2.234-7.84-4.047-17.5-4.047" filter="url(#0)" opacity=".6" transform="matrix(8.92935 0 0 8.0364 57.673 105.23)"/><path fill="url(#C)" d="m31 18.25a13.5 13.75 0 1 1 -27 0 13.5 13.75 0 1 1 27 0" opacity=".6" transform="matrix(10.58293 0 0 10.39052 46.594 46.586)"/><path fill="url(#B)" d="m226.71 88.88c-76.04 2.894-136.88 65.63-136.88 142.37 0 21.582 12.529 42.16 22.246 59.933-4.215-48.47 16.668-59.05 30.534-54.747 42.07 13.06 115.08 24.933 190.08-14.229 26.294-13.728 41.627 19.908 40.577-10.325-8.389-69.6-69.02-123.01-141.06-123.01-1.842 0-3.671-.069-5.496 0" opacity=".5"/><use fill="none" stroke="url(#9)" stroke-linecap="round" stroke-width="1.875" transform="matrix(14.28696 0 0 14.28696-518.27 171.92)" xlink:href="#D"/><g><path fill="url(#1)" stroke="url(#7)" stroke-linecap="round" stroke-linejoin="round" stroke-width=".677" d="m76.8 49.769l.648 3.255 5.181 5.213c.192.194.972.32 1.943-.656.972-.977.896-1.704.648-1.953l-5.181-5.208-3.238-.651z" transform="matrix(13.78738 0 0 13.71562-719.87-339.24)"/><path fill="#fff" d="m79.57 51.32c-.003.011.294.324-.245.865-.539.541-1.01.374-.993.36l-.269-1.522 1.508.296" opacity=".192" transform="matrix(13.78738 0 0 13.71562-719.87-339.24)"/></g><path fill="none" stroke="url(#3)" stroke-linecap="round" stroke-width="8.929" d="m350.42 354.78l5.559 28.585 66.967 67.41c3.293 3.315 8.339 1.946 16.677-6.393 8.339-8.339 10.489-12.513 6.348-16.677l-66.967-67.36-28.585-5.559z"/><path fill="url(#6)" d="m337.45 338.83c-2.32.781-3.637 3.215-3.02 5.572l9.05 44.576c.226.818.673 1.56 1.293 2.143l71.09 71.58c3.186 3.189 7.996 4.121 13.787 3 5.791-1.121 12.612-4.793 19.819-12 7.148-7.148 10.832-13.543 12.06-19.288 1.232-5.744.125-11-3.02-14.14l-71.52-71.15c-.703-.69-1.608-1.14-2.585-1.286l-44.38-9c-.844-.242-1.741-.242-2.585 0" opacity=".153"/><g fill="none" stroke-linecap="round"><use stroke="url(#A)" stroke-width=".606" transform="matrix(14.73343 0 0 14.73343-541.71 169.91)" xlink:href="#D"/><use stroke="url(#4)" stroke-width=".571" transform="matrix(15.62636 0 0 15.62636-588.59 165.89)" xlink:href="#D"/><use stroke="url(#2)" stroke-width=".688" transform="matrix(12.97588 0 0 12.97591-449.44 177.82)" xlink:href="#D"/></g><path fill="url(#8)" d="m22.1875 12.9375a9.8125 9.8125 0 1 1 -19.625 0 9.8125 9.8125 0 1 1 19.625 0" opacity=".161" transform="matrix(11.82998 0 0 11.82998 85.4 83.16)"/></svg>