<svg xmlns="http://www.w3.org/2000/svg" xmlns:svg="http://www.w3.org/2000/svg" id="svg28" version="1.1" viewBox="0 0 512 512"><metadata id="metadata34"/><path id="path2" fill="none" stroke="#fff" stroke-width="16" d="M 456,408 H 184 V 328 H 72 V 152 c 0,-16 -1,-36 11,-59" color="#000"/><path id="path4" fill="none" stroke="red" stroke-linecap="square" stroke-width="16" d="m 241.7,225.27 c -22.321,27.407 -62.63,31.529 -90.04,9.208 -27.407,-22.321 -31.529,-62.63 -9.208,-90.04" color="#000"/><path id="path6" fill="none" stroke="#fff" stroke-linecap="square" stroke-width="16" d="m 142.45,144.44 c 22.321,-27.407 62.63,-31.529 90.04,-9.208 27.407,22.321 31.529,62.63 9.208,90.04" color="#000"/><path id="path10" fill="none" stroke="#fff" stroke-width="16" d="M 287.09,271.58 216,360 h 192" color="#000"/><path id="path12" fill="none" stroke="red" stroke-linecap="square" stroke-width="16" d="M 408,360 V 136 L 296,264" color="#000"/><path id="path14" fill="none" stroke="red" stroke-linecap="square" stroke-width="16" d="m 88,88 c 16,-16 32,-32 64,-32 101.33,0 304,0 304,0 v 352" color="#000"/><path id="path18" fill="none" stroke="#666" stroke-width="16" d="M 40,40 472,408" color="#000"/><path id="path20" fill="none" stroke="#666" stroke-width="16" d="M 40,72 472,440" color="#000"/><path id="path24" fill="none" stroke="#fff" stroke-width="16" d="M 40,56 472,424" color="#000"/></svg>