<svg xmlns="http://www.w3.org/2000/svg" viewBox="0 0 512 512"><g fill="none" stroke-width="16" color="#000"><path stroke="#000" d="m456 408h-272v-80h-112v-176c0-16-1-36 11-59"/><g stroke-linecap="square"><path stroke="red" d="m241.7 225.27c-22.321 27.407-62.63 31.529-90.04 9.208-27.407-22.321-31.529-62.63-9.208-90.04"/><path stroke="#000" d="m142.45 144.44c22.321-27.407 62.63-31.529 90.04-9.208 27.407 22.321 31.529 62.63 9.208 90.04"/></g><path stroke="#000" d="m287.09 271.58l-71.09 88.42h192"/><g stroke="red" stroke-linecap="square"><path d="m408 360v-224l-112 128"/><path d="m88 88c16-16 32-32 64-32 101.33 0 304 0 304 0v352"/></g><g stroke="#fff"><path d="m40 40l432 368"/><path d="m40 72l432 368"/></g><path stroke="#666" d="m40 56l432 368"/></g></svg>