<svg xmlns="http://www.w3.org/2000/svg" xmlns:svg="http://www.w3.org/2000/svg" xmlns:xlink="http://www.w3.org/1999/xlink" id="svg2" version="1.1" viewBox="0 0 512 512"><metadata id="metadata99"/><defs id="defs4"><linearGradient id="4" x1="33.938" x2="42.562" y1="23.22" y2="26.09" gradientUnits="userSpaceOnUse" xlink:href="#3"/><linearGradient id="3"><stop id="stop8" stop-color="#fff"/><stop id="stop10" offset="1" stop-color="#fff" stop-opacity="0"/></linearGradient><linearGradient id="5" x1="31.25" x2="49.09" y1="22.75" y2="44.582" gradientUnits="userSpaceOnUse" xlink:href="#3"/><linearGradient id="0" x2="0" y1="20.91" y2="24.18" gradientTransform="matrix(.69315 0 0-.68479 11.47 38.638)" gradientUnits="userSpaceOnUse"><stop id="stop14" stop-color="#edd400"/><stop id="stop16" offset="1" stop-color="#fff492"/></linearGradient><linearGradient id="2"><stop id="stop19"/><stop id="stop21" offset="1" stop-opacity="0"/></linearGradient><linearGradient id="1" x2="0" y1="366.65" y2="609.5" gradientTransform="matrix(2.77439 0 0 1.96971-1892.18-872.89)" gradientUnits="userSpaceOnUse"><stop id="stop24" stop-opacity="0"/><stop id="stop26" offset=".5"/><stop id="stop28" offset="1" stop-opacity="0"/></linearGradient><radialGradient id="B" cx="605.71" cy="486.65" r="117.14" gradientTransform="matrix(-2.77439 0 0 1.96971 112.76-872.89)" gradientUnits="userSpaceOnUse" xlink:href="#2"/><radialGradient id="C" cx="20.892" cy="64.57" r="5.257" gradientUnits="userSpaceOnUse" xlink:href="#A"/><radialGradient id="D" cx="605.71" cy="486.65" r="117.14" gradientTransform="matrix(2.77439 0 0 1.96971-1891.63-872.89)" gradientUnits="userSpaceOnUse" xlink:href="#2"/><radialGradient id="A" cx="20.892" cy="114.57" r="5.256" gradientUnits="userSpaceOnUse"><stop id="stop34" stop-color="#f0f0f0"/><stop id="stop36" offset="1" stop-color="#9a9a9a"/></radialGradient><radialGradient id="7" cx="9.412" cy="30.3" r="1.207" gradientUnits="userSpaceOnUse" xlink:href="#A"/><radialGradient id="9" cx="33.967" cy="35.737" r="86.71" gradientTransform="scale(.96049 1.04113)" gradientUnits="userSpaceOnUse"><stop id="stop40" stop-color="#fafafa"/><stop id="stop42" offset="1" stop-color="#bbb"/></radialGradient><radialGradient id="6" cx="8.824" cy="3.756" r="37.752" gradientTransform="matrix(.96827 0 0 1.03277 3.354.646)" gradientUnits="userSpaceOnUse"><stop id="stop45" stop-color="#a3a3a3"/><stop id="stop47" offset="1" stop-color="#4c4c4c"/></radialGradient><radialGradient id="8" cx="8.144" cy="7.268" r="38.16" gradientTransform="matrix(.96827 0 0 1.03277 3.354.646)" gradientUnits="userSpaceOnUse"><stop id="stop50" stop-color="#fff"/><stop id="stop52" offset="1" stop-color="#f8f8f8"/></radialGradient><radialGradient id="E" cx="9.412" cy="18.811" r="1.208" gradientUnits="userSpaceOnUse" xlink:href="#C"/><linearGradient id="0-3" x1="44.43" x2="2.519" y1="68.19" y2="25.851" gradientUnits="userSpaceOnUse"><stop id="stop4298" stop-color="#fff"/><stop id="stop4300" offset="1" stop-opacity="0"/></linearGradient><radialGradient id="1-3" cx="257.44" cy="151.1" r="70.871" gradientTransform="matrix(0.53828,-0.62177,-0.31266,-0.27067,-63.04,247.49)" gradientUnits="userSpaceOnUse"><stop id="stop4303"/><stop id="stop4305" offset="1" stop-color="#c6d5e2"/></radialGradient></defs><g id="g55" transform="matrix(.21187 0 0 .14539 458.32 443.84)"><path id="path57" fill="url(#1)" d="m-1559.25-150.7h1339.63v478.36h-1339.63z" opacity=".402"/><path id="path59" fill="url(#D)" d="m-219.62-150.68c0 0 0 478.33 0 478.33 142.87.9 345.4-107.17 345.4-239.2 0-132.03-159.44-239.13-345.4-239.13" opacity=".402"/><path id="path61" fill="url(#B)" d="m-1559.25-150.68c0 0 0 478.33 0 478.33-142.87.9-345.4-107.17-345.4-239.2 0-132.03 159.44-239.13 345.4-239.13" opacity=".402"/></g><g id="g63" stroke-linecap="round" stroke-linejoin="round" display="block" transform="matrix(9.7856 0 0 9.7856 37.469 26.14)"><path id="path65" fill="url(#9)" stroke="url(#6)" d="m7.753 3.647h32.577a1.149 1.149 0 0 1 1.1491 1.149v38.622a1.149 1.149 0 0 1 -1.1491 1.149h-32.577a1.149 1.149 0 0 1 -1.1491 -1.149v-38.622a1.149 1.149 0 0 1 1.149 -1.149"/><path id="path67" fill="none" stroke="url(#8)" d="m7.815 4.584h32.478a.149 .149 0 0 1 .149 .149v38.648a.149 .149 0 0 1 -.149 .149h-32.478a.149 .149 0 0 1 -.1491 -.149v-38.648a.149 .149 0 0 1 .149 -.149"/></g><g id="g69" fill="#fff" transform="matrix(2.24778 0 0 2.24778 92.4 67.31)"><path id="path71" d="m23.428 113.07c0 1.973-1.6 3.572-3.573 3.572-1.974 0-3.573-1.6-3.573-3.572 0-1.974 1.6-3.573 3.573-3.573 1.973 0 3.573 1.6 3.573 3.573"/><path id="path73" d="m23.428 63.07c0 1.973-1.6 3.573-3.573 3.573-1.974 0-3.573-1.6-3.573-3.573 0-1.974 1.6-3.573 3.573-3.573 1.973 0 3.573 1.6 3.573 3.573"/></g><g id="g75" transform="matrix(9.7856 0 0 9.7856 43.795 25.766)"><path id="path77" fill="url(#7)" d="m9.995 29.952c0 .453-.367.82-.821.82-.453 0-.821-.367-.821-.82 0-.453.367-.821.821-.821.453 0 .821.367.821.821"/><path id="path79" fill="url(#E)" d="m9.995 18.467c0 .453-.367.821-.821.821-.453 0-.821-.367-.821-.821 0-.453.367-.821.821-.821.453 0 .821.367.821.821"/></g><g id="g81" fill="none" transform="matrix(9.7856 0 0 9.7856 37.469 26.14)"><path id="path83" stroke="#000" stroke-opacity=".018" stroke-width=".989" d="m11.506 5.494v37.907"/><path id="path85" stroke="#fff" stroke-opacity=".205" d="m12.5 5.02v38.02"/></g><g id="g87" transform="matrix(0-10.66666-10.66666 0 453.03 522.35)"><g id="g89" display="block"><path id="path91" fill="url(#0)" stroke="#c4a000" d="m24.5 13.5l-11 10 11 10.469.031-6.469h9.375c4.645-.191 7.692 2.156 7.563 5v.125 6.813c10.22-7.05 3.633-20.08-7.563-19.969l-9.406.063v-6.03z"/><path id="path93" fill="#edd400" stroke="url(#5)" d="m23.469 15.813l-8.469 7.688 8.469 8.06.031-4.063c0-.569.462-1.031 1.031-1.031h9.375c2.505-.103 4.602.455 6.156 1.531 1.545 1.07 2.507 2.71 2.438 4.5 0 .011.001.021 0 .031v.094 4.438c3.125-3.062 3.651-6.682 2.281-9.875-1.599-3.728-5.679-6.738-10.875-6.688l-9.406.063c-.569 0-1.031-.462-1.031-1.031v-3.719z" opacity=".61"/></g><path id="path95" fill="url(#4)" fill-rule="evenodd" d="m14.06 23.625c7.333-.938 27.1.156 29.875 3.344h2c-3.208-3.104-8.354-7.24-11.938-6.969l-10.03.125.031-5.625-9.938 9.125" opacity=".45"/></g><g id="g4307" stroke-linecap="round" stroke-linejoin="round" transform="matrix(3.6218378,0,0,3.6218378,284.37596,211.91562)"><g id="g4309" stroke="#000" stroke-opacity=".267" stroke-width="1.269"><path id="path4311" d="m 56.32,50.19 c -0.131,1.395 -0.354,2.763 -0.672,4.095 -2.622,-0.173 -4.999,-0.328 -7.084,-0.448 -0.368,1.24 -0.832,2.44 -1.396,3.581 1.624,1.305 3.484,2.789 5.543,4.411 -0.679,1.214 -1.441,2.374 -2.278,3.476 -2.327,-1.226 -4.44,-2.325 -6.294,-3.279 -0.822,0.973 -1.726,1.876 -2.699,2.699 0.954,1.852 2.054,3.957 3.279,6.281 -1.107,0.842 -2.269,1.609 -3.489,2.291 -1.622,-2.06 -3.095,-3.919 -4.398,-5.543 -1.142,0.565 -2.34,1.028 -3.581,1.396 0.117,2.087 0.261,4.461 0.434,7.084 -1.336,0.319 -2.696,0.554 -4.095,0.685 -0.642,-2.534 -1.233,-4.83 -1.764,-6.847 -0.344,0.016 -0.692,0.026 -1.04,0.026 -0.966,0 -1.91,-0.067 -2.844,-0.184 -0.741,1.96 -1.582,4.187 -2.489,6.649 -1.37,-0.249 -2.705,-0.584 -4,-1.014 0.443,-2.57 0.836,-4.91 1.172,-6.979 -1.255,-0.484 -2.459,-1.062 -3.595,-1.751 -1.482,1.497 -3.141,3.196 -4.964,5.069 -1.132,-0.774 -2.2,-1.622 -3.213,-2.541 1.445,-2.16 2.758,-4.128 3.911,-5.886 -0.965,-0.962 -1.839,-2.01 -2.62,-3.134 -1.973,0.771 -4.184,1.651 -6.61,2.62 -0.715,-1.156 -1.343,-2.366 -1.896,-3.621 2.192,-1.381 4.187,-2.652 5.965,-3.792 -0.495,-1.286 -0.89,-2.63 -1.146,-4.02 -2.12,-0.098 -4.49,-0.19 -7.084,-0.29 -0.163,-1.261 -0.25,-2.54 -0.25,-3.845 0,-0.066 0,-0.131 0,-0.197 2.553,-0.368 4.887,-0.709 6.979,-1.027 0.077,-1.446 0.297,-2.852 0.632,-4.214 -1.901,-0.954 -4.02,-2 -6.347,-3.147 0.391,-1.294 0.866,-2.553 1.422,-3.766 2.488,0.704 4.77,1.335 6.821,1.896 0.663,-1.275 1.447,-2.475 2.331,-3.595 -1.349,-1.647 -2.86,-3.476 -4.516,-5.464 0.881,-1.01 1.836,-1.95 2.844,-2.831 1.984,1.652 3.807,3.156 5.451,4.503 1.123,-0.886 2.328,-1.666 3.608,-2.331 -0.563,-2.052 -1.206,-4.333 -1.909,-6.821 1.213,-0.556 2.472,-1.031 3.766,-1.422 1.145,2.327 2.203,4.457 3.16,6.36 1.363,-0.335 2.767,-0.556 4.214,-0.632 0.319,-2.095 0.658,-4.433 1.027,-6.992 0.062,0 0.123,0 0.184,0 1.307,0 2.595,0.099 3.858,0.263 0.1,2.597 0.191,4.964 0.29,7.084 1.394,0.257 2.737,0.633 4.03,1.132 1.142,-1.777 2.411,-3.772 3.792,-5.965 1.245,0.55 2.447,1.187 3.595,1.896 -0.968,2.422 -1.839,4.637 -2.607,6.61 1.114,0.776 2.164,1.649 3.121,2.607 1.755,-1.155 3.727,-2.453 5.886,-3.898 0.922,1.015 1.778,2.091 2.554,3.226 -1.876,1.825 -3.572,3.495 -5.069,4.977 0.681,1.126 1.271,2.325 1.751,3.568 2.065,-0.338 4.398,-0.729 6.965,-1.172 0.43,1.296 0.778,2.635 1.027,4 -2.465,0.908 -4.699,1.745 -6.663,2.489 0.117,0.934 0.184,1.891 0.184,2.857 0,0.352 -0.011,0.692 -0.026,1.04 2.02,0.532 4.313,1.122 6.847,1.764 z M 31.724,47.385 c 0,-2.721 -2.216,-4.938 -4.938,-4.938 -2.721,0 -4.925,2.216 -4.925,4.938 0,2.721 2.203,4.925 4.925,4.925 2.721,0 4.938,-2.203 4.938,-4.925 z"/><path id="path4313" fill="url(#1-3)" d="m 57.885,49.4 c -0.131,1.395 -0.354,2.763 -0.672,4.095 -2.622,-0.173 -4.999,-0.328 -7.084,-0.448 -0.368,1.24 -0.832,2.44 -1.396,3.581 1.624,1.305 3.484,2.789 5.543,4.411 -0.679,1.214 -1.441,2.374 -2.278,3.476 -2.327,-1.226 -4.44,-2.325 -6.294,-3.279 -0.822,0.973 -1.726,1.876 -2.699,2.699 0.954,1.852 2.054,3.957 3.279,6.281 -1.107,0.842 -2.269,1.609 -3.489,2.291 -1.622,-2.06 -3.095,-3.919 -4.398,-5.543 -1.142,0.565 -2.34,1.028 -3.581,1.396 0.117,2.087 0.261,4.461 0.434,7.084 -1.336,0.319 -2.696,0.554 -4.095,0.685 -0.642,-2.534 -1.233,-4.83 -1.764,-6.847 -0.344,0.016 -0.692,0.026 -1.04,0.026 -0.966,0 -1.91,-0.067 -2.844,-0.184 -0.741,1.96 -1.582,4.187 -2.489,6.649 -1.37,-0.249 -2.705,-0.584 -4,-1.014 0.443,-2.57 0.836,-4.91 1.172,-6.979 -1.255,-0.484 -2.459,-1.062 -3.595,-1.751 -1.482,1.497 -3.141,3.196 -4.964,5.069 -1.132,-0.774 -2.2,-1.622 -3.213,-2.541 1.445,-2.16 2.758,-4.128 3.911,-5.886 -0.965,-0.962 -1.839,-2.01 -2.62,-3.134 -1.973,0.771 -4.184,1.651 -6.61,2.62 -0.715,-1.156 -1.343,-2.366 -1.896,-3.621 2.192,-1.381 4.187,-2.652 5.965,-3.792 -0.495,-1.286 -0.89,-2.63 -1.146,-4.02 -2.12,-0.098 -4.49,-0.19 -7.084,-0.29 -0.163,-1.261 -0.25,-2.54 -0.25,-3.845 0,-0.066 0,-0.131 0,-0.197 2.553,-0.368 4.887,-0.709 6.979,-1.027 0.077,-1.446 0.297,-2.852 0.632,-4.214 -1.901,-0.954 -4.02,-2 -6.347,-3.147 0.391,-1.294 0.866,-2.553 1.422,-3.766 2.488,0.704 4.77,1.335 6.821,1.896 0.663,-1.275 1.447,-2.475 2.331,-3.595 -1.349,-1.647 -2.86,-3.476 -4.516,-5.464 0.881,-1.01 1.836,-1.95 2.844,-2.831 1.984,1.652 3.807,3.156 5.451,4.503 1.123,-0.886 2.328,-1.666 3.608,-2.331 -0.563,-2.052 -1.206,-4.333 -1.909,-6.821 1.213,-0.556 2.472,-1.031 3.766,-1.422 1.145,2.327 2.203,4.457 3.16,6.36 1.363,-0.335 2.767,-0.556 4.214,-0.632 0.319,-2.095 0.658,-4.433 1.027,-6.992 0.062,0 0.123,0 0.184,0 1.307,0 2.595,0.099 3.858,0.263 0.1,2.597 0.191,4.964 0.29,7.084 1.394,0.257 2.737,0.633 4.03,1.132 1.142,-1.777 2.411,-3.772 3.792,-5.965 1.245,0.55 2.447,1.187 3.595,1.896 -0.968,2.422 -1.839,4.637 -2.607,6.61 1.114,0.776 2.164,1.649 3.121,2.607 1.755,-1.155 3.727,-2.453 5.886,-3.898 0.922,1.015 1.778,2.091 2.554,3.226 -1.876,1.825 -3.572,3.495 -5.069,4.977 0.681,1.126 1.271,2.325 1.751,3.568 2.065,-0.338 4.398,-0.729 6.965,-1.172 0.43,1.296 0.778,2.635 1.027,4 -2.465,0.908 -4.699,1.745 -6.663,2.489 0.117,0.934 0.184,1.891 0.184,2.857 0,0.352 -0.011,0.692 -0.026,1.04 2.02,0.532 4.313,1.122 6.847,1.764 z M 33.289,46.595 c 0,-2.721 -2.216,-4.938 -4.938,-4.938 -2.721,0 -4.925,2.216 -4.925,4.938 0,2.721 2.203,4.925 4.925,4.925 2.721,0 4.938,-2.203 4.938,-4.925 z"/></g><path id="path4315" fill="url(#0-3)" stroke="#fff" stroke-opacity=".183" stroke-width="1.479" d="m 44.43,46.596 c 0,8.871 -7.206,16.06 -16.08,16.06 -8.871,0 -16.06,-7.193 -16.06,-16.06 0,-8.871 7.193,-16.08 16.06,-16.08 8.871,0 16.08,7.206 16.08,16.08 z m -7.282,0 c 0,-4.855 -3.941,-8.796 -8.796,-8.796 -4.855,0 -8.796,3.941 -8.796,8.796 0,4.855 3.941,8.796 8.796,8.796 4.855,0 8.796,-3.941 8.796,-8.796 z"/></g></svg>