<svg xmlns="http://www.w3.org/2000/svg" xmlns:svg="http://www.w3.org/2000/svg" id="svg50" width="512" height="512" fill="none" stroke-linecap="round" stroke-linejoin="round" version="1.1" viewBox="-5.485 -81.762 144.499 144.499"><metadata id="metadata56"/><g id="g48" stroke-width="1.411" transform="matrix(1,0,0,-1,37.988055,34.035488)"><g id="g36" stroke="#000"><circle id="circle30" cx=".018" cy="65.339" r="21.646" stroke-dasharray="none" stroke-miterlimit="4" stroke-width="4.516"/><circle id="circle32" cx="56.018" cy="18.089" r="29.75" stroke-dasharray="none" stroke-miterlimit="4" stroke-width="4.516"/><path id="path34" stroke-dasharray="none" stroke-miterlimit="4" stroke-width="4.516" d="m -30.580722,-23.32825 112.8575,133.7525"/></g><g id="g46" stroke="red" transform="matrix(1.75,0,0,1.75,-20.981972,-32.661)"><path id="path38" stroke-dasharray="none" stroke-miterlimit="4" stroke-width="1.29" d="M 26,56 H 20.5 M 19,56 H 17.5 M 16,56 H 8 M 6.5,56 H 5 M 3.5,56 H -2"/><path id="path40" stroke-dasharray="none" stroke-miterlimit="4" stroke-width="1.29" d="m 44,48 v -4.25 m 0,-1.5 v -1.5 m 0,-1.5 v -8 m 0,-1.5 v -1.5 m 0,-1.5 v -8 m 0,-1.5 v -1.5 m 0,-1.5 V 10"/><path id="path42" stroke-dasharray="none" stroke-miterlimit="4" stroke-width="1.29" d="m 25,29 h 4.25 m 1.5,0 h 1.5 m 1.5,0 h 8 m 1.5,0 h 1.5 m 1.5,0 h 8 m 1.5,0 h 1.5 m 1.5,0 H 63"/><path id="path44" stroke-dasharray="none" stroke-miterlimit="4" stroke-width="1.29" d="M 12,70 V 64.5 M 12,63 V 61.5 M 12,60 v -8 m 0,-1.5 V 49 m 0,-1.5 V 42"/></g></g></svg>