<svg xmlns="http://www.w3.org/2000/svg" xmlns:svg="http://www.w3.org/2000/svg" id="svg22" width="512" height="512" fill="none" stroke-linecap="round" stroke-linejoin="round" version="1.1" viewBox="-5.485 -81.762 144.499 144.499"><metadata id="metadata28"/><g id="g20" stroke-width="1.411" transform="matrix(1.75,0,0,-1.75,16.436162,66.696488)"><g id="g8" stroke="#fff"><circle id="circle2" cx="12" cy="56" r="12.369" stroke-dasharray="none" stroke-miterlimit="4" stroke-width="2.58"/><circle id="circle4" cx="44" cy="29" r="17" stroke-dasharray="none" stroke-miterlimit="4" stroke-width="2.58"/><path id="path6" d="m -5.485,5.333 64.49,76.43"/></g><g id="g18" stroke="red"><path id="path10" stroke-dasharray="none" stroke-miterlimit="4" stroke-width="1.29" d="M 26,56 H 20.5 M 19,56 H 17.5 M 16,56 H 8 M 6.5,56 H 5 M 3.5,56 H -2"/><path id="path12" stroke-dasharray="none" stroke-miterlimit="4" stroke-width="1.29" d="m 44,48 v -4.25 m 0,-1.5 v -1.5 m 0,-1.5 v -8 m 0,-1.5 v -1.5 m 0,-1.5 v -8 m 0,-1.5 v -1.5 m 0,-1.5 V 10"/><path id="path14" stroke-dasharray="none" stroke-miterlimit="4" stroke-width="1.29" d="m 25,29 h 4.25 m 1.5,0 h 1.5 m 1.5,0 h 8 m 1.5,0 h 1.5 m 1.5,0 h 8 m 1.5,0 h 1.5 m 1.5,0 H 63"/><path id="path16" stroke-dasharray="none" stroke-miterlimit="4" stroke-width="1.29" d="M 12,70 V 64.5 M 12,63 V 61.5 M 12,60 v -8 m 0,-1.5 V 49 m 0,-1.5 V 42"/></g></g></svg>