<svg xmlns="http://www.w3.org/2000/svg" width="210" height="90" fill="none" stroke-linecap="round" stroke-linejoin="round" version="1.1" viewBox="30 -120 210 90"><g transform="scale(1,-1)"><circle cx="60" cy="90" r="15" stroke="#000" stroke-width="1"/><g><path stroke="#000" stroke-width=".5" d="M102,30 L120,48.000000000000014"/><path stroke="#000" stroke-width=".5" d="M78,30 L120,72"/><path stroke="#000" stroke-width=".5" d="M53.999999999999986,30 L120,96"/><path stroke="#000" stroke-width=".5" d="M30.00000000000001,30.000000000000004 L120,119.99999999999999"/><path stroke="#000" stroke-width=".5" d="M30,53.999999999999986 L96,120"/><path stroke="#000" stroke-width=".5" d="M30,78 L72,120"/><path stroke="#000" stroke-width=".5" d="M30,102 L48.000000000000014,120"/></g><g><path stroke="#000" stroke-width=".5" d="M222,30 L240,48"/><path stroke="#000" stroke-width=".5" d="M198,30 L240,72"/><path stroke="#000" stroke-width=".5" d="M174,30 L240,96"/><path stroke="#000" stroke-width=".5" d="M150,30 L240,120"/><path stroke="#000" stroke-width=".5" d="M150,54 L172.8265050253121,76.82650502531209"/><path stroke="#000" stroke-width=".5" d="M193.17349497468794,97.17349497468794 L216,120"/><path stroke="#000" stroke-width=".5" d="M150,78 L165.38751391983908,93.3875139198391"/><path stroke="#000" stroke-width=".5" d="M176.6124860801609,104.6124860801609 L192,120"/><path stroke="#000" stroke-width=".5" d="M150,102 L168,120"/></g><path stroke="red" stroke-width="1" d="M30,30 L30,120"/><path stroke="red" stroke-width="1" d="M30,120 L120,120"/><path stroke="red" stroke-width="1" d="M120,120 L120,30"/><path stroke="red" stroke-width="1" d="M120,30 L30,30"/><path stroke="red" stroke-width="1" d="M150,30 L150,120"/><path stroke="red" stroke-width="1" d="M150,120 L240,120"/><path stroke="red" stroke-width="1" d="M240,120 L240,30"/><path stroke="red" stroke-width="1" d="M240,30 L150,30"/><circle cx="180" cy="90" r="15" stroke="red" stroke-width="1"/></g></svg>