<svg xmlns="http://www.w3.org/2000/svg" xmlns:svg="http://www.w3.org/2000/svg" xmlns:xlink="http://www.w3.org/1999/xlink" id="svg282" version="1.1" viewBox="0 0 512 512"><metadata id="metadata286"/><defs id="defs186"><path id="G" d="m75.43-425.12h171.46a6.0478 6.0478 0 0 1 6.048 6.048v203.28a6.0478 6.0478 0 0 1 -6.048 6.048h-171.46a6.0478 6.0478 0 0 1 -6.0478 -6.048v-203.28a6.0478 6.0478 0 0 1 6.0478 -6.048"/><path id="H" d="m23.428 113.07c0 1.973-1.6 3.572-3.573 3.572-1.974 0-3.573-1.6-3.573-3.572 0-1.974 1.6-3.573 3.573-3.573 1.973 0 3.573 1.6 3.573 3.573"/><path id="I" d="m9.995 29.952c0 .453-.367.82-.821.82-.453 0-.821-.367-.821-.82 0-.453.367-.821.821-.821.453 0 .821.367.821.821"/><path id="J" stroke="#000" stroke-opacity=".018" stroke-width="5.203" d="m95.18-415.4v199.51"/><path id="K" d="m75.75-420.19h170.94a.7845 .7845 0 0 1 .784 .785v203.42a.7845 .7845 0 0 1 -.784 .785h-170.94a.7845 .7845 0 0 1 -.7845 -.785v-203.42a.7845 .7845 0 0 1 .7845 -.785"/><path id="L" d="m9.995 18.467c0 .453-.367.821-.821.821-.453 0-.821-.367-.821-.821 0-.453.367-.821.821-.821.453 0 .821.367.821.821"/><radialGradient id="9" cx="9.412" cy="18.811" r="1.208" gradientUnits="userSpaceOnUse" xlink:href="#3"/><radialGradient id="A" cx="8.144" cy="7.268" r="38.16" gradientTransform="matrix(5.09631,0,0,5.43576,52.27,-440.91)" gradientUnits="userSpaceOnUse" xlink:href="#2"/><radialGradient id="F" cx="9.412" cy="30.3" r="1.207" gradientUnits="userSpaceOnUse" xlink:href="#1"/><radialGradient id="B" cx="9.412" cy="30.3" r="1.207" gradientUnits="userSpaceOnUse" xlink:href="#1"/><radialGradient id="D" cx="33.967" cy="35.737" r="86.71" gradientTransform="matrix(5.05536,0,0,5.47978,34.621,-444.32)" gradientUnits="userSpaceOnUse" xlink:href="#6"/><radialGradient id="E" cx="8.824" cy="3.756" r="37.752" gradientTransform="matrix(5.09631,0,0,5.43576,52.27,-440.91)" gradientUnits="userSpaceOnUse" xlink:href="#4"/><radialGradient id="C" cx="9.412" cy="18.811" r="1.208" gradientUnits="userSpaceOnUse" xlink:href="#3"/><radialGradient id="8" cx="9.412" cy="30.3" r="1.207" gradientUnits="userSpaceOnUse" xlink:href="#1"/><radialGradient id="0" cx="9.412" cy="18.811" r="1.208" gradientUnits="userSpaceOnUse" xlink:href="#3"/><radialGradient id="1" cx="20.892" cy="114.57" r="5.256" gradientUnits="userSpaceOnUse"><stop id="stop163" stop-color="#f0f0f0"/><stop id="stop165" offset="1" stop-color="#9a9a9a"/></radialGradient><radialGradient id="7" cx="9.412" cy="18.811" r="1.208" gradientUnits="userSpaceOnUse" xlink:href="#3"/><radialGradient id="2" cx="8.144" cy="7.268" r="38.16" gradientTransform="matrix(5.09631 0 0 5.43576 52.27-440.91)" gradientUnits="userSpaceOnUse"><stop id="stop169" stop-color="#fff"/><stop id="stop171" offset="1" stop-color="#f8f8f8"/></radialGradient><radialGradient id="3" cx="20.892" cy="64.57" r="5.257" gradientUnits="userSpaceOnUse" xlink:href="#1"/><radialGradient id="6" cx="33.967" cy="35.737" r="86.71" gradientTransform="matrix(5.05536 0 0 5.47978 34.621-444.32)" gradientUnits="userSpaceOnUse"><stop id="stop175" stop-color="#fafafa"/><stop id="stop177" offset="1" stop-color="#bbb"/></radialGradient><radialGradient id="4" cx="8.824" cy="3.756" r="37.752" gradientTransform="matrix(5.09631 0 0 5.43576 52.27-440.91)" gradientUnits="userSpaceOnUse"><stop id="stop180" stop-color="#a3a3a3"/><stop id="stop182" offset="1" stop-color="#4c4c4c"/></radialGradient><radialGradient id="5" cx="9.412" cy="30.3" r="1.207" gradientUnits="userSpaceOnUse" xlink:href="#1"/><path id="G-7" d="m75.43-425.12h171.46a6.0478 6.0478 0 0 1 6.048 6.048v203.28a6.0478 6.0478 0 0 1 -6.048 6.048h-171.46a6.0478 6.0478 0 0 1 -6.0478 -6.048v-203.28a6.0478 6.0478 0 0 1 6.0478 -6.048"/><path id="H-9" d="m23.428 113.07c0 1.973-1.6 3.572-3.573 3.572-1.974 0-3.573-1.6-3.573-3.572 0-1.974 1.6-3.573 3.573-3.573 1.973 0 3.573 1.6 3.573 3.573"/><path id="I-3" d="m9.995 29.952c0 .453-.367.82-.821.82-.453 0-.821-.367-.821-.82 0-.453.367-.821.821-.821.453 0 .821.367.821.821"/><path id="J-8" stroke="#000" stroke-opacity=".018" stroke-width="5.203" d="m95.18-415.4v199.51"/><path id="K-0" d="m75.75-420.19h170.94a.7845 .7845 0 0 1 .784 .785v203.42a.7845 .7845 0 0 1 -.784 .785h-170.94a.7845 .7845 0 0 1 -.7845 -.785v-203.42a.7845 .7845 0 0 1 .7845 -.785"/><path id="L-2" d="m9.995 18.467c0 .453-.367.821-.821.821-.453 0-.821-.367-.821-.821 0-.453.367-.821.821-.821.453 0 .821.367.821.821"/><radialGradient id="9-4" cx="9.412" cy="18.811" r="1.208" gradientUnits="userSpaceOnUse" xlink:href="#1-3"/><radialGradient id="A-8" cx="8.144" cy="7.268" r="38.16" gradientTransform="matrix(5.09631,0,0,5.43576,52.27,-440.91)" gradientUnits="userSpaceOnUse" xlink:href="#2-9"/><radialGradient id="F-3" cx="9.412" cy="30.3" r="1.207" gradientUnits="userSpaceOnUse" xlink:href="#1-3"/><radialGradient id="B-9" cx="9.412" cy="30.3" r="1.207" gradientUnits="userSpaceOnUse" xlink:href="#1-3"/><radialGradient id="D-0" cx="33.967" cy="35.737" r="86.71" gradientTransform="matrix(5.05536,0,0,5.47978,34.621,-444.32)" gradientUnits="userSpaceOnUse" xlink:href="#6-2"/><radialGradient id="E-5" cx="8.824" cy="3.756" r="37.752" gradientTransform="matrix(5.09631,0,0,5.43576,52.27,-440.91)" gradientUnits="userSpaceOnUse" xlink:href="#4-3"/><radialGradient id="C-2" cx="9.412" cy="18.811" r="1.208" gradientUnits="userSpaceOnUse" xlink:href="#1-3"/><radialGradient id="8-2" cx="9.412" cy="30.3" r="1.207" gradientUnits="userSpaceOnUse" xlink:href="#1-3"/><radialGradient id="0-7" cx="9.412" cy="18.811" r="1.208" gradientUnits="userSpaceOnUse" xlink:href="#1-3"/><radialGradient id="1-3" cx="20.892" cy="114.57" r="5.256" gradientUnits="userSpaceOnUse"><stop id="stop1835" stop-color="#f0f0f0"/><stop id="stop1837" offset="1" stop-color="#9a9a9a"/></radialGradient><radialGradient id="7-7" cx="9.412" cy="18.811" r="1.208" gradientUnits="userSpaceOnUse" xlink:href="#1-3"/><radialGradient id="2-9" cx="8.144" cy="7.268" r="38.16" gradientTransform="matrix(5.09631 0 0 5.43576 52.27-440.91)" gradientUnits="userSpaceOnUse"><stop id="stop1841" stop-color="#fff"/><stop id="stop1843" offset="1" stop-color="#f8f8f8"/></radialGradient><radialGradient id="3-0" cx="20.892" cy="64.57" r="5.257" gradientUnits="userSpaceOnUse" xlink:href="#1-3"/><radialGradient id="6-2" cx="33.967" cy="35.737" r="86.71" gradientTransform="matrix(5.05536 0 0 5.47978 34.621-444.32)" gradientUnits="userSpaceOnUse"><stop id="stop1847" stop-color="#fafafa"/><stop id="stop1849" offset="1" stop-color="#bbb"/></radialGradient><radialGradient id="4-3" cx="8.824" cy="3.756" r="37.752" gradientTransform="matrix(5.09631 0 0 5.43576 52.27-440.91)" gradientUnits="userSpaceOnUse"><stop id="stop1852" stop-color="#a3a3a3"/><stop id="stop1854" offset="1" stop-color="#4c4c4c"/></radialGradient><radialGradient id="5-9" cx="9.412" cy="30.3" r="1.207" gradientUnits="userSpaceOnUse" xlink:href="#1-3"/></defs><g id="g192" stroke-linecap="round" stroke-linejoin="round" color="#000" display="block" transform="matrix(1.9903697,0,0,1.9903697,-63.762178,889.9783)"><use id="use188" width="100%" height="100%" x="0" y="0" fill="url(#D)" stroke="url(#E)" stroke-width="10" xlink:href="#G"/><path id="path190" fill="none" stroke="url(#A)" stroke-width="5.263" d="m 75.75,-420.19 h 170.94 a 0.7845,0.7845 0 0 1 0.784,0.785 v 203.42 a 0.7845,0.7845 0 0 1 -0.784,0.785 H 75.75 a 0.7845,0.7845 0 0 1 -0.7845,-0.785 v -203.42 a 0.7845,0.7845 0 0 1 0.7845,-0.785"/></g><path id="path1956" fill="none" stroke="red" stroke-linecap="square" stroke-width="16" d="M 142.45,121.16 H 369.55001 V 390.84 H 142.45 Z" color="#000"/></svg>