<svg xmlns="http://www.w3.org/2000/svg" xmlns:svg="http://www.w3.org/2000/svg" xmlns:xlink="http://www.w3.org/1999/xlink" id="svg2994" width="512" height="512" version="1.1"><defs id="defs3"><linearGradient id="linearGradient4467"><stop id="stop4469" offset="0" stop-color="#FFF" stop-opacity="1"/><stop id="stop4471" offset="1" stop-color="#FFF" stop-opacity=".248"/></linearGradient><radialGradient id="radialGradient1876" cx="15.414" cy="13.078" r="6.656" fx="15.414" fy="13.078" gradientTransform="matrix(2.59296,0,0,2.2521,-25.0597,-18.941)" gradientUnits="userSpaceOnUse" xlink:href="#linearGradient4467"/><linearGradient id="linearGradient4454"><stop id="stop4456" offset="0" stop-color="#729FCF" stop-opacity=".208"/><stop id="stop4458" offset="1" stop-color="#729FCF" stop-opacity=".676"/></linearGradient><radialGradient id="radialGradient4460" cx="18.241" cy="21.818" r="8.309" fx="18.241" fy="21.818" gradientUnits="userSpaceOnUse" xlink:href="#linearGradient4454"/><linearGradient id="linearGradient2366"><stop id="stop2368" offset="0" stop-color="#FFF" stop-opacity="1"/><stop id="stop2374" offset=".5" stop-color="#FFF" stop-opacity=".219"/><stop id="stop2370" offset="1" stop-color="#FFF" stop-opacity="1"/></linearGradient><linearGradient id="linearGradient2372" x1="18.293" x2="17.501" y1="13.602" y2="25.743" gradientUnits="userSpaceOnUse" xlink:href="#linearGradient2366"/><linearGradient id="linearGradient4440"><stop id="stop4442" offset="0" stop-color="#7D7D7D" stop-opacity="1"/><stop id="stop4448" offset=".5" stop-color="#B1B1B1" stop-opacity="1"/><stop id="stop4444" offset="1" stop-color="#686868" stop-opacity="1"/></linearGradient><linearGradient id="linearGradient1883" x1="30.656" x2="33.219" y1="34" y2="31.063" gradientTransform="matrix(1.33459,0,0,1.29129,-6.97384,-7.46066)" gradientUnits="userSpaceOnUse" xlink:href="#linearGradient4440"/><linearGradient id="linearGradient2846"><stop id="stop2848" offset="0" stop-color="#8A8A8A" stop-opacity="1"/><stop id="stop2850" offset="1" stop-color="#484848" stop-opacity="1"/></linearGradient><linearGradient id="linearGradient1887" x1="27.366" x2="31.336" y1="26.58" y2="30.558" gradientUnits="userSpaceOnUse" xlink:href="#linearGradient2846"/><linearGradient id="linearGradient7612"><stop id="stop7614" offset="0" stop-color="#000" stop-opacity="1"/><stop id="stop7616" offset="1" stop-color="#000" stop-opacity="0"/></linearGradient><radialGradient id="radialGradient7618" cx="24" cy="41.875" r="19.125" fx="24" fy="41.875" gradientTransform="matrix(1,0,0,0.333333,0,27.9167)" gradientUnits="userSpaceOnUse" xlink:href="#linearGradient7612"/><linearGradient id="linearGradient4762"><stop id="stop4764" offset="0" stop-color="#FFF" stop-opacity=".124"/><stop id="stop4768" offset=".103" stop-color="#FFF" stop-opacity="1"/><stop id="stop4766" offset="1" stop-color="#FFF" stop-opacity="0"/></linearGradient><linearGradient id="linearGradient4741"><stop id="stop4743" offset="0" stop-color="#DCDCDA" stop-opacity="1"/><stop id="stop4745" offset="1" stop-color="#BAB9B7" stop-opacity="1"/></linearGradient><linearGradient id="linearGradient4733"><stop id="stop4735" offset="0" stop-color="#000" stop-opacity=".237"/><stop id="stop4737" offset="1" stop-color="#000" stop-opacity="0"/></linearGradient><linearGradient id="linearGradient4698"><stop id="stop4700" offset="0" stop-color="#FFFFFD" stop-opacity="1"/><stop id="stop4706" offset=".5" stop-color="#BBBBB9" stop-opacity="1"/><stop id="stop4702" offset="1" stop-color="#000" stop-opacity="1"/></linearGradient><linearGradient id="linearGradient4688"><stop id="stop4690" offset="0" stop-color="#666" stop-opacity="1"/><stop id="stop4692" offset="1" stop-color="#000" stop-opacity="0"/></linearGradient><linearGradient id="linearGradient4680"><stop id="stop4682" offset="0" stop-color="#F7F6F5" stop-opacity="1"/><stop id="stop4684" offset="1" stop-color="#F7F6F5" stop-opacity="0"/></linearGradient><linearGradient id="linearGradient4668"><stop id="stop4670" offset="0" stop-color="#8E8D87" stop-opacity="1"/><stop id="stop4676" offset=".276" stop-color="#CBC9C1" stop-opacity="1"/><stop id="stop4672" offset="1" stop-color="#8E8D87" stop-opacity="1"/></linearGradient><linearGradient id="linearGradient259"><stop id="stop260" offset="0" stop-color="#E0E0E0" stop-opacity="1"/><stop id="stop4886" offset=".405" stop-color="#FFF" stop-opacity="1"/><stop id="stop4884" offset=".534" stop-color="#CDCDCD" stop-opacity="1"/><stop id="stop261" offset="1" stop-color="#494949" stop-opacity="1"/></linearGradient><linearGradient id="linearGradient15662"><stop id="stop15664" offset="0" stop-color="#FFF" stop-opacity="0"/><stop id="stop15666" offset="1" stop-color="#F8F8F8" stop-opacity="1"/></linearGradient><radialGradient id="radialGradient1433" cx="9.13" cy="26.926" r="2.123" fx="9.13" fy="26.926" gradientUnits="userSpaceOnUse" xlink:href="#linearGradient4698"/><linearGradient id="linearGradient1447" x1="9.87" x2="9.913" y1="57.228" y2="72.064" gradientTransform="matrix(29.568942,0,0,3.8478803,6.32367,-444.7034)" gradientUnits="userSpaceOnUse" xlink:href="#linearGradient4733"/><linearGradient id="linearGradient1451" x1="10.338" x2="10.338" y1="64.652" y2="54.136" gradientTransform="matrix(25.278278,0,0,4.5009999,-0.27598,-454.13145)" gradientUnits="userSpaceOnUse" xlink:href="#linearGradient4680"/><linearGradient id="linearGradient1453" x1="9.732" x2="9.705" y1="70.725" y2="62.282" gradientTransform="matrix(25.278278,0,0,4.5009999,-0.27598,-454.13145)" gradientUnits="userSpaceOnUse" xlink:href="#linearGradient4688"/><linearGradient id="linearGradient1456" x1="20.771" x2="20.718" y1="25.14" y2="19.337" gradientTransform="matrix(12.825165,0,0,9.118469,-3.50136,-454.13145)" gradientUnits="userSpaceOnUse" xlink:href="#linearGradient15662"/><linearGradient id="linearGradient1459" x1="25.057" x2="24.79" y1="3.679" y2="25.247" gradientTransform="matrix(10.122127,0,0,11.530446,-1.26111,-432.79813)" gradientUnits="userSpaceOnUse" xlink:href="#linearGradient259"/><linearGradient id="linearGradient1464" x1="15.388" x2="15.488" y1="32.539" y2="58.831" gradientTransform="matrix(15.95039,0,0,7.1332329,-0.27598,-454.13145)" gradientUnits="userSpaceOnUse" xlink:href="#linearGradient4762"/><linearGradient id="linearGradient1468" x1="1.846" x2="18.972" y1="88.295" y2="88.295" gradientTransform="matrix(24.562331,0,0,4.6321998,-0.27598,-454.13145)" gradientUnits="userSpaceOnUse" xlink:href="#linearGradient4741"/><linearGradient id="linearGradient1471" x1="1.846" x2="18.972" y1="88.295" y2="88.295" gradientTransform="matrix(24.562331,0,0,4.6321998,-0.27598,-466.13144)" gradientUnits="userSpaceOnUse" xlink:href="#linearGradient4668"/></defs><metadata id="metadata4"/><g id="layer1" transform="translate(0,464)"><path id="path7610" fill="url(#radialGradient7618)" fill-opacity="1" fill-rule="nonzero" stroke="none" stroke-width="4" d="m 43.125,41.875 a 19.125,6.375 0 1 1 -38.25,0 19.125,6.375 0 1 1 38.25,0 z" color="#000" display="inline" overflow="visible" transform="matrix(10.66666,0,0,10.66666,-3.60312,-496.86987)" visibility="visible" style="marker:none"/><rect id="rect4652" width="410" height="68.667" x="50.391" y="-91.465" fill="url(#linearGradient1471)" fill-opacity="1" stroke="#595959" stroke-miterlimit="4" stroke-opacity="1" stroke-width="10.667" rx="18.257" ry="18.257"/><path id="rect4609" fill="url(#linearGradient1468)" fill-opacity="1" fill-rule="nonzero" stroke="#676767" stroke-dashoffset="0" stroke-linecap="butt" stroke-linejoin="miter" stroke-miterlimit="4" stroke-opacity="1" stroke-width="10.667" d="m 75.19944,-246.13158 361.60111,0 c 4.12668,0 9.39949,3.07366 12.65115,7.7218 3.25167,4.64816 18.61039,27.84021 22.06063,32.7898 3.45024,4.94957 4.21139,9.64146 4.21139,15.74489 l 0,128.820213 c 0,9.74477 -7.84507,17.58984 -17.58985,17.58984 l -404.26775,0 c -9.74477,0 -17.58984,-7.84507 -17.58984,-17.58984 l 0,-128.820213 c 0,-5.26952 1.08423,-12.82568 4.7843,-17.63552 4.66898,-6.06938 17.19438,-27.17809 20.49812,-31.65438 3.30375,-4.47627 9.3704,-6.96659 13.64074,-6.96659 z" color="#000" display="inline" overflow="visible" visibility="visible" style="marker:none"/><path id="path4718" fill="#fbfbfb" fill-opacity="1" fill-rule="evenodd" stroke="none" d="m 78.91993,-241.05924 c -5.36243,0 -12.25753,1.40561 -15.08494,5.71405 l -19.79898,30.16987 c -3.1872,4.85669 0.36209,16.30388 9.95262,16.30388 l 401.53015,0 c 12.97275,0 13.01063,-10.77405 9.95261,-15.36108 l -18.85617,-28.28425 c -3.41901,-5.12853 -4.66002,-8.54247 -13.19931,-8.54247 l -354.49598,0 z"/><path id="path4750" fill="none" stroke="url(#linearGradient1464)" stroke-dashoffset="0" stroke-linecap="butt" stroke-linejoin="miter" stroke-miterlimit="4" stroke-opacity="1" stroke-width="10.101" d="m 80.12379,-236.04352 350.8096,0 c 3.90782,0 8.901,2.91065 11.98022,7.31229 3.07922,4.40165 13.85219,21.64971 17.11945,26.3368 3.26726,4.68709 4.65472,9.13015 4.65472,14.9099 l 0,120.331623 c 0,9.22799 -1.42903,13.32368 -10.65701,13.32368 l -396.06155,0 c -9.22797,0 -11.32366,-4.09569 -11.32366,-13.32368 l 0,-120.331623 c 0,-4.99007 2.36006,-12.1455 5.8639,-16.70026 4.42138,-5.7475 11.56847,-21.02271 14.69701,-25.2616 3.12854,-4.23889 8.87346,-6.59713 12.91732,-6.59713 z" color="#000" display="inline" overflow="visible" visibility="visible" style="marker:none"/><path id="rect15391" fill="url(#linearGradient1459)" fill-opacity="1" fill-rule="nonzero" stroke="#898989" stroke-dashoffset="0" stroke-linecap="round" stroke-linejoin="miter" stroke-miterlimit="4" stroke-opacity="1" stroke-width="10.667" d="m 123.14009,-428.46315 263.85715,0 c 6.96526,0 12.57267,5.46641 12.57267,12.25651 l 0,200.43117 -289.0025,0 0,-200.43117 c 0,-6.7901 5.60741,-12.25651 12.57268,-12.25651 z" color="#000" display="block" overflow="visible" visibility="visible" style="marker:none"/><rect id="rect15660" width="267.471" height="201.225" x="121.047" y="-417.118" fill="none" stroke="url(#linearGradient1456)" stroke-dashoffset="0" stroke-linecap="round" stroke-linejoin="round" stroke-miterlimit="4" stroke-opacity="1" stroke-width="10.667" color="#000" display="block" overflow="visible" rx="1.886" ry="1.886" visibility="visible" style="marker:none"/><rect id="rect4678" width="360" height="55.333" x="73.057" y="-183.465" fill="url(#linearGradient1451)" fill-opacity="1" stroke="url(#linearGradient1453)" stroke-miterlimit="4" stroke-opacity="1" stroke-width="10.667" rx="18.257" ry="18.257"/><path id="path4696" fill="url(#radialGradient1433)" fill-opacity="1" stroke="none" d="m 10.871767,27.626486 a 1.281631,1.281631 0 1 1 -2.5632624,0 1.281631,1.281631 0 1 1 2.5632624,0 z" transform="matrix(10.66666,0,0,10.66666,-0.27598,-454.13145)"/><path id="path4731" fill="url(#linearGradient1447)" fill-opacity="1" fill-rule="evenodd" stroke="none" d="m 124.99026,-204.36037 272.6665,0.66667 c 7.33331,0.0181 10.53674,-3.95728 9.99999,-10.66666 l -1.33333,-16.66666 19.90524,0 c 8.66666,0 10.56212,2.054 12.66665,6 l 5.33333,9.99999 c 5.61915,10.53589 19.31917,21.05718 5.31371,21.05718 -48.02889,0 -300.5521,-3.72386 -324.55209,-10.39052 z" opacity=".366"/><path id="path4760" fill="none" stroke="#fff" stroke-linecap="round" stroke-linejoin="round" stroke-opacity="1" stroke-width="10.667" d="m 457.72373,-190.13161 -406.66641,0"/><g id="g4849" opacity=".436" transform="matrix(10.66666,0,0,10.66666,-0.27598,-454.13145)"><rect id="rect4831" width="19" height="1" x="14" y="5" fill="#000" fill-opacity=".292" fill-rule="nonzero" stroke="none" stroke-width="1" color="#000" display="inline" overflow="visible" visibility="visible" style="marker:none"/><rect id="rect4833" width="19" height="1" x="14" y="7" fill="#000" fill-opacity=".292" fill-rule="nonzero" stroke="none" stroke-width="1" color="#000" display="inline" overflow="visible" visibility="visible" style="marker:none"/><rect id="rect4835" width="19" height="1" x="14" y="9" fill="#000" fill-opacity=".292" fill-rule="nonzero" stroke="none" stroke-width="1" color="#000" display="inline" overflow="visible" visibility="visible" style="marker:none"/><rect id="rect4837" width="19" height="1" x="14" y="11" fill="#000" fill-opacity=".292" fill-rule="nonzero" stroke="none" stroke-width="1" color="#000" display="inline" overflow="visible" visibility="visible" style="marker:none"/><rect id="rect4839" width="11" height="1" x="14" y="13" fill="#000" fill-opacity=".292" fill-rule="nonzero" stroke="none" stroke-width="1" color="#000" display="inline" overflow="visible" visibility="visible" style="marker:none"/><rect id="rect4843" width="19" height="1" x="14" y="17" fill="#000" fill-opacity=".292" fill-rule="nonzero" stroke="none" stroke-width="1" color="#000" display="inline" overflow="visible" visibility="visible" style="marker:none"/><rect id="rect4845" width="19" height="1" x="14" y="19" fill="#000" fill-opacity=".292" fill-rule="nonzero" stroke="none" stroke-width="1" color="#000" display="inline" overflow="visible" visibility="visible" style="marker:none"/></g><g id="g1890" transform="matrix(7.6338939,0,0,7.6338939,43.21764,-425.18331)"><path stroke-miterlimit="10" style="marker:none" id="path2844" fill="#dcdcdc" fill-opacity="1" fill-rule="evenodd" stroke="url(#linearGradient1887)" stroke-dasharray="none" stroke-dashoffset="0" stroke-linecap="round" stroke-linejoin="miter" stroke-opacity="1" stroke-width="2.795" d="m 18.627569,3.1435548 c -8.13913,0 -14.7448008,6.6056711 -14.7448008,14.7448012 0,8.13913 6.6056708,14.744802 14.7448008,14.744802 3.479555,0 6.551001,-1.384393 9.073723,-3.402647 -0.205377,1.006881 -0.07803,2.035368 0.756144,2.759925 l 10.964084,9.52741 c 1.233416,1.071329 3.087462,0.93096 4.15879,-0.302457 1.071328,-1.233418 0.930959,-3.087462 -0.302457,-4.15879 L 32.313769,27.529188 c -0.671527,-0.583279 -1.492878,-0.755969 -2.306238,-0.642722 1.9867,-2.512422 3.364839,-5.548803 3.364839,-8.99811 0,-8.1391301 -6.605671,-14.7448012 -14.744801,-14.7448012 z m -0.07562,1.2261833 c 7.639459,0 13.291775,4.7889505 13.291775,13.2917749 0,8.675113 -5.81669,13.291775 -13.291775,13.291775 -7.302949,0 -13.2917734,-5.478092 -13.2917734,-13.291775 0,-7.9841069 5.8246384,-13.291775 13.2917734,-13.2917749 z" color="#000" display="inline" overflow="visible" visibility="visible"/><path id="path4430" fill="#dcdcdc" fill-opacity="1" fill-rule="evenodd" stroke="none" stroke-width="1" d="m 18.602905,3.0803551 c -8.16544,0 -14.7924642,6.627024 -14.7924642,14.7924639 0,8.16544 6.6270242,14.792464 14.7924642,14.792464 3.490803,0 6.572177,-1.388867 9.103055,-3.413645 -0.206041,1.010136 -0.07829,2.041947 0.758587,2.768846 l 10.999526,9.558207 c 1.237403,1.074792 3.097442,0.93397 4.172233,-0.303435 1.074791,-1.237404 0.933968,-3.097442 -0.303435,-4.172233 L 32.333346,27.544815 c -0.673698,-0.585164 -1.497704,-0.758413 -2.313693,-0.644799 1.993122,-2.520544 3.375716,-5.56674 3.375716,-9.027197 0,-8.1654399 -6.627024,-14.7924639 -14.792464,-14.7924639 z m -0.07586,3.1860692 c 6.281108,2e-7 11.378818,5.0977107 11.378818,11.3788187 0,6.281108 -5.09771,11.378818 -11.378818,11.378818 -6.281108,0 -11.3788184,-5.09771 -11.3788184,-11.378818 2e-7,-6.281108 5.0977104,-11.3788187 11.3788184,-11.3788187 z" color="#000" display="inline" overflow="visible" visibility="visible" style="marker:none"/><path id="path4438" fill="url(#linearGradient1883)" fill-opacity="1" fill-rule="evenodd" stroke="none" stroke-width="1" d="m 39.507004,41.57769 c -0.478672,-2.273187 1.39733,-4.811422 3.584053,-4.788375 0,0 -10.760367,-9.258111 -10.760367,-9.258111 -2.944791,-0.05671 -4.269502,2.272616 -3.776814,4.599922 l 10.953128,9.446564 z" color="#000" display="inline" overflow="visible" visibility="visible" style="marker:none"/><path id="path4450" fill="none" stroke="url(#linearGradient2372)" stroke-dasharray="none" stroke-dashoffset="0" stroke-linecap="round" stroke-linejoin="miter" stroke-miterlimit="10" stroke-opacity="1" stroke-width="1.122" d="m 28.549437,18.920233 c 0,6.101942 -4.946602,11.048544 -11.048544,11.048544 -6.101943,0 -11.0485443,-4.946602 -11.0485443,-11.048544 0,-6.101943 4.9466013,-11.0485442 11.0485443,-11.0485442 6.101942,0 11.048544,4.9466012 11.048544,11.0485442 z" color="#000" display="inline" overflow="visible" transform="matrix(1.24574,0,0,1.24574,-3.42535,-6.17703)" visibility="visible" style="marker:none"/><rect stroke-miterlimit="10" style="marker:none" id="rect4495" width="19.048" height="4.44" x="40.373" y=".141" fill="none" stroke="#fff" stroke-dasharray="none" stroke-dashoffset="0" stroke-linecap="round" stroke-linejoin="miter" stroke-opacity="1" stroke-width="1.397" color="#000" display="inline" opacity=".433" overflow="visible" rx="2.986" ry="2.638" transform="matrix(0.752986,0.658037,-0.648902,0.760872,0,0)" visibility="visible"/><path id="path4452" fill="url(#radialGradient4460)" fill-opacity="1" fill-rule="evenodd" stroke="#3063a3" stroke-dashoffset="0" stroke-linecap="round" stroke-linejoin="miter" stroke-miterlimit="10" stroke-opacity="1" stroke-width=".999" d="m 25.897786,18.478292 c 0,4.588661 -3.719844,8.308506 -8.308505,8.308506 -4.588661,0 -8.308505,-3.719845 -8.308505,-8.308506 0,-4.58866 3.719844,-8.308505 8.308505,-8.308505 4.588661,0 8.308505,3.719845 8.308505,8.308505 z" color="#000" transform="matrix(1.39861,0,0,1.39861,-6.22434,-8.29896)" visibility="visible" style="marker:none"/><path id="path4462" fill="url(#radialGradient1876)" fill-opacity="1" fill-rule="evenodd" stroke="none" stroke-width="1" d="m 18.156915,7.3966938 c -5.20759,0 -9.4245469,4.2169572 -9.4245469,9.4245472 0,1.503975 0.4203072,2.887773 1.0471719,4.149903 1.25238,0.461613 2.582757,0.775683 3.994767,0.775683 6.170955,0 11.099282,-4.861637 11.480106,-10.937129 C 23.523449,8.7641668 21.044374,7.3966938 18.156915,7.3966938 z" color="#000" display="inline" opacity=".834" overflow="visible" visibility="visible" style="marker:none"/></g></g></svg>